<?xml version="1.0" encoding="UTF-8"?>
<!DOCTYPE svg PUBLIC "-//W3C//DTD SVG 1.1//EN" "http://www.w3.org/Graphics/SVG/1.1/DTD/svg11.dtd">
<!-- Creator: CorelDRAW 2019 (64 Bit) -->
<svg xmlns="http://www.w3.org/2000/svg" xml:space="preserve" width="109.105mm" height="23.099mm" version="1.1" style="shape-rendering:geometricPrecision; text-rendering:geometricPrecision; image-rendering:optimizeQuality; fill-rule:evenodd; clip-rule:evenodd"
viewBox="0 0 10623 2249"
 xmlns:xlink="http://www.w3.org/1999/xlink">
 <defs>
  <style type="text/css">
   <![CDATA[
    .fil6 {fill:#FEFEFE;fill-rule:nonzero}
    .fil0 {fill:#FEFEFE;fill-rule:nonzero}
    .fil10 {fill:#DDDEDE;fill-rule:nonzero}
    .fil2 {fill:#00A2CA;fill-rule:nonzero}
    .fil1 {fill:#0BABDF;fill-rule:nonzero}
    .fil9 {fill:#F2F25E;fill-rule:nonzero}
    .fil7 {fill:#F76E18;fill-rule:nonzero}
    .fil5 {fill:#F7B831;fill-rule:nonzero}
    .fil4 {fill:#FA8035;fill-rule:nonzero}
    .fil8 {fill:#FC9656;fill-rule:nonzero}
    .fil3 {fill:#FF6403;fill-rule:nonzero}
   ]]>
  </style>
 </defs>
 <g id="Camada_x0020_1">
  <metadata id="CorelCorpID_0Corel-Layer"/>
  <g id="_2804673780592">
   <g>
    <path class="fil0" d="M2249 1124c0,621 -504,1125 -1125,1125 -621,0 -1125,-504 -1125,-1125 0,-617 497,-1118 1113,-1124l23 0c616,6 1113,507 1113,1124l0 0z"/>
    <path class="fil1" d="M2119 1124c0,549 -445,994 -994,994 -549,0 -994,-445 -994,-994 0,-549 445,-994 994,-994 549,0 994,445 994,994l0 0z"/>
    <path class="fil2" d="M1795 588l-1341 0c-20,0 -33,21 -24,39l91 172 67 127 111 211 67 127 111 211 67 127 0 311c0,15 12,27 27,27l306 0c15,0 27,-12 27,-27l0 -311 67 -127 111 -211 67 -127 111 -211 67 -127 91 -172c9,-18 -3,-39 -24,-39l0 0z"/>
    <path class="fil3" d="M430 543l158 298 1073 0 158 -298c9,-18 -3,-39 -24,-39l-1341 0c-20,0 -33,21 -24,39l0 0z"/>
    <polygon class="fil4" points="766,1178 1483,1178 1661,841 588,841 "/>
    <polygon class="fil5" points="945,1516 1304,1516 1483,1178 766,1178 "/>
    <path class="fil6" d="M1278 1853c15,0 27,-12 27,-27l0 -311 -360 0 0 311c0,15 12,27 27,27l306 0z"/>
    <polygon class="fil7" points="521,714 588,841 1661,841 1728,714 "/>
    <polygon class="fil8" points="700,1052 766,1178 1483,1178 1550,1052 "/>
    <polygon class="fil9" points="878,1389 945,1516 1304,1516 1371,1389 "/>
    <path class="fil10" d="M1304 1827l0 -100 -360 0 0 100c0,15 12,27 27,27l306 0c15,0 27,-12 27,-27l0 0z"/>
   </g>
   <path class="fil0" d="M2773 836c114,0 211,40 290,120l-2 0c8,8 13,16 16,25 3,9 4,17 4,25 0,24 -9,44 -26,61 -8,8 -17,14 -28,17 -11,3 -22,5 -33,5 -25,0 -45,-7 -60,-22 -47,-42 -101,-63 -162,-63 -33,0 -65,7 -95,20 -30,14 -57,32 -79,55 -23,23 -41,49 -54,79 -13,30 -20,60 -20,92 0,33 7,65 20,95 14,30 32,57 55,80 23,23 49,42 79,55 30,13 61,19 94,16 63,0 120,-23 172,-70 10,-11 27,-17 51,-17 22,0 41,9 58,27 18,17 27,36 27,56 0,9 -2,19 -5,28 -3,10 -9,17 -15,23 -40,40 -83,70 -131,90 -47,20 -100,30 -158,30 -57,0 -110,-11 -161,-33 -50,-22 -94,-52 -131,-90 -38,-38 -67,-81 -90,-131 -22,-50 -33,-103 -33,-159 0,-55 11,-107 33,-156 22,-50 52,-93 90,-131 38,-38 82,-69 132,-91 50,-23 103,-34 159,-34z"/>
   <path class="fil0" d="M3509 1022c-33,0 -65,6 -95,19 -30,13 -56,30 -79,52 -22,22 -40,48 -53,78 -13,30 -20,62 -20,97 0,33 7,65 20,95 13,30 31,57 53,79 22,23 48,41 79,54 30,13 62,20 95,20 33,0 65,-7 95,-20 30,-13 56,-31 79,-54 22,-23 40,-49 53,-79 13,-30 20,-62 20,-95 -3,-67 -27,-124 -72,-170 -44,-46 -102,-71 -172,-76l-2 0zm2 -169c56,0 108,11 158,33 50,22 93,52 131,90 38,38 67,81 90,131 22,50 33,104 33,161 0,57 -11,110 -32,160 -22,50 -51,93 -88,131 -37,38 -81,67 -131,89 -50,22 -104,32 -162,32 -57,0 -110,-10 -161,-31 -50,-20 -94,-49 -131,-86 -38,-37 -67,-81 -89,-131 -22,-50 -32,-105 -32,-164 0,-57 11,-110 32,-160 21,-50 50,-93 88,-130 38,-37 82,-67 132,-89 51,-22 105,-34 163,-37z"/>
   <path class="fil0" d="M4393 831c55,0 107,10 157,30 50,20 94,48 131,83 38,35 68,77 91,126 23,49 34,102 34,159l0 345c0,23 -8,42 -25,58 -17,16 -36,24 -59,26 -23,0 -42,-7 -59,-22 -17,-15 -25,-34 -25,-56l0 -335c0,-34 -6,-66 -19,-96 -13,-30 -30,-55 -52,-78 -22,-22 -48,-40 -79,-53 -30,-13 -63,-20 -98,-20 -33,0 -64,6 -93,18 -29,12 -55,29 -77,50 -22,22 -40,47 -53,75 -13,28 -20,59 -20,92l0 340c0,23 -9,42 -26,59 -17,17 -37,25 -60,25 -23,0 -43,-7 -60,-22 -17,-15 -26,-34 -26,-56l0 -335c1,-57 13,-110 34,-161 22,-50 51,-94 87,-131 36,-38 80,-67 130,-89 50,-22 105,-32 164,-32z"/>
   <path class="fil0" d="M5416 838c23,9 39,25 48,47 9,22 9,45 0,67 -41,107 -83,216 -126,328 -43,112 -85,221 -126,328 -5,9 -14,20 -28,34 -14,14 -31,20 -50,20 -17,0 -34,-4 -50,-13 -16,-9 -27,-22 -34,-42l-254 -656c-9,-23 -9,-45 1,-67 10,-22 26,-38 49,-47l-2 2c24,-8 47,-7 69,3 22,10 38,26 47,49l-2 -2 172 451c11,-30 24,-64 39,-103 15,-39 30,-80 47,-122 16,-42 32,-83 48,-122 15,-39 29,-74 40,-103l-3 2c9,-23 25,-39 48,-49 23,-10 46,-11 68,-3l-2 -2z"/>
   <path class="fil0" d="M6106 1159c-27,-46 -62,-83 -105,-112 -43,-29 -90,-44 -141,-44 -54,0 -102,15 -144,44 -43,30 -76,66 -100,109 -2,2 -3,5 -3,7l495 0c-1,0 -2,-1 -2,-2l0 -3zm-246 -326c55,0 107,12 158,35 51,23 95,54 133,92 38,38 69,83 92,133 23,51 35,103 35,158 0,23 -9,43 -26,61 -17,18 -39,26 -65,25l-574 0c33,59 71,101 115,126 44,25 87,38 131,38 24,0 44,-3 61,-9 17,-6 32,-11 44,-15 15,-10 31,-15 50,-15 25,2 45,12 61,30 15,18 23,37 23,57 0,9 -1,19 -4,29 -3,10 -9,19 -18,27l2 -3c-30,24 -63,41 -101,51 -38,10 -77,16 -120,17 -56,2 -109,-8 -160,-30 -51,-22 -95,-53 -133,-91 -38,-39 -68,-84 -91,-135 -22,-51 -33,-105 -33,-162 0,-55 11,-107 33,-158 22,-51 53,-95 91,-133 39,-38 83,-69 133,-92 50,-23 104,-35 161,-35z"/>
   <path class="fil0" d="M6409 1664c-22,0 -40,-8 -56,-24 -15,-16 -25,-35 -28,-58l0 -343c1,-56 13,-108 35,-155 22,-48 52,-90 90,-126 38,-36 81,-64 131,-85 50,-21 102,-33 158,-35 22,1 40,10 56,27 16,17 26,36 29,56 -2,22 -11,41 -27,57 -16,17 -35,25 -58,26 -33,0 -64,6 -94,19 -30,13 -56,30 -78,52 -22,22 -40,48 -53,78 -13,30 -20,62 -20,97l0 340c-3,19 -13,36 -28,51 -15,15 -34,22 -57,22z"/>
   <path class="fil0" d="M6953 570c25,0 46,9 62,26 16,18 26,40 28,66l0 154 395 0c24,0 44,9 60,26 16,18 24,38 24,61 0,23 -9,43 -26,61 -17,18 -37,27 -58,27l-395 0 0 249c0,33 6,65 19,95 12,30 30,57 52,79 22,23 48,41 79,55 30,14 62,20 96,20 39,0 71,-5 98,-16 27,-11 50,-26 71,-45l-2 0c17,-16 38,-24 63,-24 24,0 45,9 63,26 16,15 24,35 24,60 0,9 -1,19 -4,28 -3,10 -8,18 -16,25l2 0c-40,39 -83,68 -131,89 -47,20 -99,31 -155,31 -59,0 -115,-10 -168,-30 -53,-20 -99,-48 -138,-85 -39,-37 -71,-81 -95,-133 -24,-52 -36,-110 -38,-173l0 -579c0,-23 8,-44 25,-63 16,-19 38,-29 64,-29z"/>
   <path class="fil0" d="M8249 1159c-27,-46 -62,-83 -105,-112 -43,-29 -90,-44 -141,-44 -53,0 -102,15 -144,44 -43,30 -76,66 -100,109 -2,2 -3,5 -3,7l495 0c-1,0 -2,-1 -2,-2l0 -3zm-246 -326c55,0 107,12 158,35 51,23 95,54 133,92 38,38 69,83 92,133 23,51 35,103 35,158 0,23 -9,43 -26,61 -17,18 -39,26 -65,25l-574 0c33,59 71,101 115,126 44,25 87,38 131,38 24,0 44,-3 61,-9 17,-6 32,-11 44,-15 15,-10 31,-15 50,-15 25,2 45,12 61,30 15,18 23,37 23,57 0,9 -1,19 -4,29 -3,10 -9,19 -18,27l2 -3c-30,24 -63,41 -101,51 -38,10 -77,16 -120,17 -56,2 -109,-8 -160,-30 -51,-22 -95,-53 -133,-91 -38,-39 -68,-84 -91,-135 -22,-51 -33,-105 -33,-162 0,-55 11,-107 33,-158 22,-51 53,-95 91,-133 39,-38 83,-69 133,-92 50,-23 103,-35 160,-35z"/>
   <path class="fil3" d="M8610 1574c0,24 -9,45 -27,62 -18,18 -39,26 -64,26 -24,0 -44,-9 -61,-26 -17,-18 -26,-38 -26,-62 0,-25 9,-46 26,-64 17,-18 38,-26 61,-26 25,0 46,9 64,26 18,18 27,39 27,64z"/>
   <path class="fil3" d="M8997 836c34,0 69,7 103,20 35,13 69,34 103,64 72,-56 141,-84 208,-84 39,0 76,7 112,22 36,15 67,35 95,61 27,26 49,56 65,91 16,35 24,72 24,112l0 466c0,19 -9,37 -26,52 -18,15 -38,23 -61,23 -23,0 -42,-8 -59,-25 -16,-17 -25,-36 -25,-59l0 -453c0,-33 -12,-61 -35,-85 -23,-24 -53,-36 -90,-36 -31,0 -59,10 -85,31 -26,20 -38,51 -38,91l0 453c0,23 -8,42 -25,59 -17,17 -37,25 -61,25 -22,0 -41,-7 -58,-22 -17,-15 -26,-32 -26,-53l0 -461c-1,-36 -14,-66 -39,-88 -25,-22 -53,-33 -84,-33 -33,0 -62,11 -86,34 -24,23 -37,52 -38,89l0 463c-3,18 -13,35 -29,50 -16,15 -34,22 -55,22 -23,0 -43,-8 -62,-23 -18,-15 -26,-34 -24,-57l0 -461c0,-38 8,-74 23,-108 15,-35 36,-65 62,-91 26,-26 57,-47 93,-62 36,-15 74,-23 115,-23z"/>
   <path class="fil3" d="M10451 1159c-27,-46 -62,-83 -105,-112 -43,-29 -90,-44 -141,-44 -53,0 -102,15 -144,44 -43,30 -76,66 -100,109 -2,2 -3,5 -3,7l495 0c-1,0 -2,-1 -2,-2l0 -3zm-246 -326c55,0 107,12 158,35 51,23 95,54 133,92 38,38 69,83 92,133 23,51 35,103 35,158 0,23 -8,43 -26,61 -17,18 -39,26 -65,25l-574 0c33,59 71,101 115,126 44,25 87,38 131,38 24,0 44,-3 61,-9 17,-6 32,-11 44,-15 15,-10 31,-15 50,-15 25,2 45,12 61,30 15,18 23,37 23,57 0,9 -1,19 -4,29 -3,10 -9,19 -18,27l2 -3c-30,24 -63,41 -101,51 -38,10 -77,16 -120,17 -56,2 -109,-8 -160,-30 -51,-22 -95,-53 -133,-91 -38,-39 -68,-84 -90,-135 -22,-51 -33,-105 -33,-162 0,-55 11,-107 33,-158 22,-51 53,-95 91,-133 39,-38 83,-69 133,-92 50,-23 104,-35 160,-35z"/>
  </g>
 </g>
</svg>
