<?xml version="1.0" encoding="UTF-8"?>
<!DOCTYPE svg PUBLIC "-//W3C//DTD SVG 1.1//EN" "http://www.w3.org/Graphics/SVG/1.1/DTD/svg11.dtd">
<!-- Creator: CorelDRAW 2019 (64 Bit) -->
<svg xmlns="http://www.w3.org/2000/svg" xml:space="preserve" width="108.307mm" height="22.7036mm" version="1.1" style="shape-rendering:geometricPrecision; text-rendering:geometricPrecision; image-rendering:optimizeQuality; fill-rule:evenodd; clip-rule:evenodd"
viewBox="0 0 11683 2449"
 xmlns:xlink="http://www.w3.org/1999/xlink">
 <defs>
  <style type="text/css">
   <![CDATA[
    .fil6 {fill:#FEFEFE;fill-rule:nonzero}
    .fil10 {fill:#DDDEDE;fill-rule:nonzero}
    .fil2 {fill:#00A2CA;fill-rule:nonzero}
    .fil1 {fill:#0BABDF;fill-rule:nonzero}
    .fil0 {fill:#91D8F7;fill-rule:nonzero}
    .fil9 {fill:#F2F25E;fill-rule:nonzero}
    .fil7 {fill:#F76E18;fill-rule:nonzero}
    .fil5 {fill:#F7B831;fill-rule:nonzero}
    .fil4 {fill:#FA8035;fill-rule:nonzero}
    .fil8 {fill:#FC9656;fill-rule:nonzero}
    .fil3 {fill:#FF6403;fill-rule:nonzero}
   ]]>
  </style>
 </defs>
 <g id="Camada_x0020_1">
  <metadata id="CorelCorpID_0Corel-Layer"/>
  <g id="_2804679342624">
   <g>
    <path class="fil0" d="M2449 1224c0,676 -548,1225 -1225,1225 -676,0 -1225,-548 -1225,-1225 0,-672 542,-1218 1212,-1224l25 0c671,7 1212,552 1212,1224l0 0z"/>
    <path class="fil1" d="M2308 1224c0,598 -485,1083 -1083,1083 -598,0 -1083,-485 -1083,-1083 0,-598 485,-1083 1083,-1083 598,0 1083,485 1083,1083l0 0z"/>
    <path class="fil2" d="M1955 640l-1461 0c-22,0 -36,23 -26,43l99 187 73 138 121 230 73 138 121 230 73 138 0 338c0,16 13,29 29,29l334 0c16,0 29,-13 29,-29l0 -338 73 -138 121 -230 73 -138 121 -230 73 -138 99 -187c10,-19 -4,-43 -26,-43l0 0z"/>
    <path class="fil3" d="M469 591l172 325 1168 0 172 -325c10,-19 -4,-43 -26,-43l-1461 0c-22,0 -36,23 -26,43l0 0z"/>
    <polygon class="fil4" points="835,1283 1615,1283 1809,916 640,916 "/>
    <polygon class="fil5" points="1029,1651 1420,1651 1615,1283 835,1283 "/>
    <path class="fil6" d="M1391 2018c16,0 29,-13 29,-29l0 -338 -392 0 0 338c0,16 13,29 29,29l334 0z"/>
    <polygon class="fil7" points="568,778 640,916 1809,916 1882,778 "/>
    <polygon class="fil8" points="762,1145 835,1283 1615,1283 1687,1145 "/>
    <polygon class="fil9" points="956,1513 1029,1651 1420,1651 1493,1513 "/>
    <path class="fil10" d="M1420 1989l0 -109 -392 0 0 109c0,16 13,29 29,29l334 0c16,0 29,-13 29,-29l0 0z"/>
   </g>
   <g>
    <path class="fil1" d="M3048 907c125,0 232,44 319,131l-2 0c9,9 15,18 18,27 3,9 5,18 5,27 0,26 -9,49 -28,68 -9,9 -19,15 -31,19 -12,4 -24,6 -37,6 -28,0 -49,-8 -66,-24 -51,-46 -111,-70 -178,-70 -36,0 -71,8 -104,23 -33,15 -62,35 -87,60 -25,25 -45,54 -59,86 -14,33 -22,66 -22,101 0,36 8,71 23,104 15,33 35,63 60,88 25,26 54,46 86,60 33,14 67,20 103,18 69,0 132,-26 190,-77 11,-13 30,-19 56,-19 24,0 45,10 64,30 20,19 30,39 30,62 0,10 -2,20 -6,31 -4,11 -9,19 -17,25 -44,44 -92,77 -144,99 -52,22 -110,33 -174,33 -63,0 -121,-12 -177,-37 -55,-24 -103,-57 -145,-99 -41,-41 -74,-90 -99,-145 -24,-55 -37,-113 -37,-175 0,-60 12,-117 37,-172 24,-54 58,-103 100,-145 42,-42 90,-75 146,-101 55,-25 113,-38 175,-38z"/>
    <path class="fil1" d="M3858 1112c-36,0 -71,7 -104,21 -33,14 -62,33 -86,57 -24,24 -44,53 -58,85 -14,33 -22,68 -22,107 0,36 7,71 22,104 14,33 34,62 58,87 24,25 53,45 86,59 33,14 68,22 104,22 36,0 71,-7 104,-22 33,-14 62,-34 86,-59 24,-25 44,-54 58,-87 14,-33 22,-68 22,-104 -4,-74 -30,-136 -79,-187 -49,-51 -112,-79 -190,-84l-2 0zm2 -186c61,0 119,12 174,37 54,24 102,57 144,99 41,41 74,90 99,145 24,55 37,114 37,177 0,63 -12,121 -36,176 -24,54 -56,102 -97,144 -41,41 -89,74 -144,98 -55,24 -115,36 -178,36 -63,0 -121,-11 -177,-34 -55,-23 -103,-54 -145,-95 -41,-41 -74,-89 -98,-144 -24,-55 -36,-115 -36,-180 0,-63 12,-121 35,-176 23,-54 55,-102 97,-143 41,-41 90,-73 146,-98 56,-24 116,-38 179,-40z"/>
    <path class="fil1" d="M4830 901c60,0 118,11 173,33 55,22 103,52 145,91 41,39 74,85 100,139 25,54 38,112 38,175l0 379c0,25 -9,46 -27,64 -18,18 -40,27 -65,28 -25,0 -47,-8 -65,-24 -18,-16 -27,-37 -27,-62l0 -368c0,-38 -7,-73 -21,-105 -14,-33 -33,-61 -57,-85 -24,-24 -53,-44 -86,-58 -33,-14 -69,-22 -108,-22 -36,0 -70,7 -102,20 -32,13 -60,32 -85,55 -24,24 -44,51 -58,83 -14,31 -22,65 -22,101l0 374c0,25 -9,47 -28,65 -19,18 -41,27 -66,27 -25,0 -47,-8 -66,-24 -19,-16 -28,-37 -28,-62l0 -368c1,-63 14,-121 38,-177 24,-55 56,-103 96,-145 40,-41 88,-74 143,-98 55,-24 115,-36 180,-36z"/>
    <path class="fil1" d="M5955 909c25,10 43,27 53,52 10,24 10,49 0,74 -45,118 -91,238 -138,361 -47,123 -93,243 -138,361 -5,10 -15,23 -31,38 -16,15 -34,23 -55,23 -19,0 -37,-5 -54,-14 -18,-9 -30,-25 -38,-46l-280 -721c-10,-25 -10,-50 1,-74 11,-24 28,-42 54,-52l-2 2c26,-9 52,-8 76,3 24,11 42,29 52,54l-2 -2 190 496c13,-33 27,-70 43,-114 16,-43 33,-88 52,-134 18,-46 36,-91 53,-134 17,-43 32,-81 44,-114l-4 2c10,-25 28,-43 53,-54 25,-11 50,-12 75,-3l-2 -2z"/>
    <path class="fil1" d="M6714 1262c-30,-50 -69,-91 -116,-123 -47,-32 -99,-48 -155,-48 -59,0 -112,16 -159,49 -47,33 -84,73 -110,120 -3,3 -4,5 -4,8l545 0c-1,0 -2,-1 -2,-2l0 -4zm-271 -359c60,0 118,13 174,38 56,26 105,59 147,101 42,42 76,91 101,147 26,56 38,114 38,174 0,25 -9,47 -28,67 -19,19 -43,29 -71,27l-631 0c36,65 79,111 127,139 48,28 96,41 144,41 26,0 49,-3 68,-9 19,-6 35,-12 49,-17 16,-11 34,-17 54,-17 28,3 50,13 67,33 17,19 25,40 25,63 0,10 -2,21 -5,32 -3,11 -10,21 -20,30l2 -4c-33,26 -70,45 -111,56 -41,11 -85,18 -132,19 -61,3 -120,-8 -176,-33 -56,-24 -105,-58 -147,-100 -42,-43 -75,-92 -100,-148 -24,-56 -37,-116 -37,-178 0,-60 12,-118 37,-174 24,-56 58,-105 100,-147 43,-42 91,-76 147,-101 55,-26 114,-38 177,-38z"/>
    <path class="fil1" d="M7048 1818c-24,0 -44,-9 -61,-26 -17,-18 -27,-39 -31,-64l0 -378c1,-61 14,-118 38,-171 24,-53 57,-99 99,-138 41,-39 89,-71 144,-94 54,-23 112,-36 174,-39 24,1 44,11 62,30 17,19 28,39 32,62 -3,24 -13,45 -30,63 -18,18 -39,28 -64,29 -36,0 -71,7 -103,21 -33,14 -61,33 -85,57 -24,24 -44,53 -58,85 -14,33 -22,68 -22,107l0 374c-4,21 -14,40 -31,56 -17,16 -38,24 -63,24z"/>
    <path class="fil1" d="M7647 614c27,0 50,10 69,29 18,19 29,44 31,72l0 169 434 0c26,0 48,10 66,29 18,19 26,42 26,67 0,25 -9,48 -28,68 -19,20 -40,30 -64,30l-434 0 0 274c0,36 7,71 21,104 14,33 33,62 57,87 24,25 53,45 86,60 33,15 68,23 106,23 43,0 79,-6 108,-18 29,-12 55,-28 78,-50l-2 0c19,-18 42,-26 69,-26 26,0 50,9 70,28 18,16 26,38 26,66 0,10 -2,20 -5,31 -3,11 -9,20 -18,27l2 0c-44,43 -92,75 -144,98 -52,23 -109,34 -170,34 -65,0 -127,-11 -185,-33 -58,-22 -109,-53 -152,-94 -43,-41 -78,-90 -104,-147 -26,-57 -40,-121 -41,-191l0 -637c0,-25 9,-48 27,-70 18,-21 42,-32 70,-32z"/>
    <path class="fil1" d="M9071 1262c-30,-50 -69,-91 -115,-123 -47,-32 -99,-48 -155,-48 -59,0 -112,16 -159,49 -47,33 -84,73 -110,120 -3,3 -4,5 -4,8l545 0c-1,0 -2,-1 -2,-2l0 -4zm-270 -359c60,0 118,13 174,38 56,26 105,59 146,101 42,42 76,91 102,147 26,56 38,114 38,174 0,25 -9,47 -28,67 -19,19 -43,29 -71,27l-631 0c36,65 79,111 127,139 48,28 96,41 144,41 26,0 49,-3 68,-9 19,-6 35,-12 49,-17 16,-11 34,-17 54,-17 28,3 50,13 67,33 17,19 25,40 25,63 0,10 -2,21 -5,32 -3,11 -10,21 -20,30l2 -4c-33,26 -70,45 -111,56 -41,11 -85,18 -132,19 -61,3 -120,-8 -176,-33 -56,-24 -105,-58 -146,-100 -42,-43 -75,-92 -100,-148 -24,-56 -37,-116 -37,-178 0,-60 12,-118 37,-174 25,-56 58,-105 101,-147 43,-42 91,-76 147,-101 55,-26 114,-38 177,-38z"/>
    <path class="fil3" d="M9469 1719c0,26 -10,49 -29,69 -19,19 -43,29 -70,29 -26,0 -49,-10 -68,-29 -19,-19 -28,-42 -28,-69 0,-28 9,-51 28,-70 19,-19 41,-29 68,-29 28,0 51,10 70,29 19,19 29,43 29,70z"/>
    <path class="fil3" d="M9895 907c38,0 75,7 114,22 38,14 76,38 114,70 79,-61 155,-92 229,-92 43,0 84,8 123,24 39,16 74,38 104,67 30,28 54,61 71,100 17,38 26,79 26,123l0 513c0,21 -10,40 -29,57 -19,17 -42,25 -67,25 -25,0 -47,-9 -65,-27 -18,-18 -27,-40 -27,-65l0 -498c0,-36 -13,-68 -39,-94 -26,-26 -59,-39 -99,-39 -34,0 -65,11 -93,34 -28,23 -42,56 -42,100l0 498c0,25 -9,47 -27,65 -18,18 -40,27 -67,27 -24,0 -45,-8 -64,-24 -19,-16 -28,-36 -28,-58l0 -507c-1,-40 -16,-72 -43,-97 -28,-24 -58,-37 -92,-37 -36,0 -68,13 -95,38 -27,25 -41,58 -42,98l0 509c-4,20 -14,38 -32,54 -18,16 -38,24 -60,24 -25,0 -48,-8 -68,-25 -20,-17 -29,-38 -26,-63l0 -507c0,-41 8,-81 25,-119 17,-38 40,-72 69,-100 29,-29 63,-52 102,-69 39,-17 82,-25 127,-25z"/>
    <path class="fil3" d="M11494 1262c-30,-50 -69,-91 -116,-123 -47,-32 -99,-48 -155,-48 -59,0 -112,16 -159,49 -47,33 -84,73 -110,120 -3,3 -4,5 -4,8l545 0c-1,0 -2,-1 -2,-2l0 -4zm-271 -359c60,0 118,13 174,38 56,26 105,59 147,101 42,42 76,91 101,147 26,56 38,114 38,174 0,25 -9,47 -28,67 -19,19 -43,29 -71,27l-631 0c36,65 79,111 127,139 48,28 96,41 144,41 26,0 49,-3 68,-9 19,-6 35,-12 49,-17 16,-11 34,-17 55,-17 27,3 50,13 67,33 17,19 25,40 25,63 0,10 -2,21 -5,32 -3,11 -10,21 -20,30l2 -4c-33,26 -69,45 -111,56 -41,11 -85,18 -131,19 -61,3 -120,-8 -176,-33 -56,-24 -105,-58 -146,-100 -42,-43 -75,-92 -100,-148 -25,-56 -37,-116 -37,-178 0,-60 12,-118 37,-174 24,-56 58,-105 100,-147 43,-42 91,-76 147,-101 55,-26 114,-38 177,-38z"/>
   </g>
  </g>
 </g>
</svg>
