<?xml version="1.0" encoding="UTF-8"?>
<!DOCTYPE svg PUBLIC "-//W3C//DTD SVG 1.1//EN" "http://www.w3.org/Graphics/SVG/1.1/DTD/svg11.dtd">
<!-- Creator: CorelDRAW 2019 (64 Bit) -->
<svg xmlns="http://www.w3.org/2000/svg" xml:space="preserve" width="12.1462mm" height="11.797mm" version="1.1" style="shape-rendering:geometricPrecision; text-rendering:geometricPrecision; image-rendering:optimizeQuality; fill-rule:evenodd; clip-rule:evenodd"
viewBox="0 0 114.19 110.9"
 xmlns:xlink="http://www.w3.org/1999/xlink">
 <defs>
  <style type="text/css">
   <![CDATA[
    .fil0 {fill:#FEFEFE;fill-rule:nonzero}
    .fil10 {fill:url(#id0)}
    .fil4 {fill:url(#id1)}
    .fil2 {fill:url(#id2)}
    .fil5 {fill:url(#id3)}
    .fil3 {fill:url(#id4)}
    .fil11 {fill:url(#id5)}
    .fil8 {fill:url(#id6)}
    .fil6 {fill:url(#id7)}
    .fil1 {fill:url(#id8)}
    .fil7 {fill:url(#id9)}
    .fil9 {fill:url(#id10)}
   ]]>
  </style>
  <radialGradient id="id0" gradientUnits="userSpaceOnUse" gradientTransform="matrix(19.7254 -0.344286 -0.344295 -19.7243 -290 328)" cx="15.76" cy="15.58" r="8.81" fx="15.76" fy="15.58">
   <stop offset="0" style="stop-opacity:1; stop-color:#00B9EA"/>
   <stop offset="0.431373" style="stop-opacity:1; stop-color:#039ECC"/>
   <stop offset="0.247059" style="stop-opacity:1; stop-color:#0790B6"/>
   <stop offset="1" style="stop-opacity:1; stop-color:#0D6783"/>
  </radialGradient>
  <radialGradient id="id1" gradientUnits="userSpaceOnUse" gradientTransform="matrix(7.80523 -0.136249 -0.136242 -7.80566 -105 139)" xlink:href="#id0" cx="15.75" cy="15.57" r="22.25" fx="15.75" fy="15.57">
  </radialGradient>
  <radialGradient id="id2" gradientUnits="userSpaceOnUse" gradientTransform="matrix(19.6648 -0.330881 -0.33089 -19.6664 -287 357)" xlink:href="#id0" cx="15.69" cy="17.04" r="8.83" fx="15.69" fy="17.04">
  </radialGradient>
  <radialGradient id="id3" gradientUnits="userSpaceOnUse" gradientTransform="matrix(19.6928 -0.343768 -0.343744 -19.6942 -289 328)" xlink:href="#id0" cx="15.75" cy="15.57" r="8.82" fx="15.75" fy="15.57">
  </radialGradient>
  <radialGradient id="id4" gradientUnits="userSpaceOnUse" gradientTransform="matrix(7.48377 -0.128265 -0.128256 -7.48399 -100 141)" xlink:href="#id0" cx="15.67" cy="16.34" r="23.21" fx="15.67" fy="16.34">
  </radialGradient>
  <radialGradient id="id5" gradientUnits="userSpaceOnUse" gradientTransform="matrix(19.6965 -0.337587 -0.337564 -19.6953 -289 352)" xlink:href="#id0" cx="15.77" cy="16.74" r="8.82" fx="15.77" fy="16.74">
  </radialGradient>
  <radialGradient id="id6" gradientUnits="userSpaceOnUse" gradientTransform="matrix(7.45992 -0.125891 -0.125887 -7.4606 -99 151)" xlink:href="#id0" cx="15.63" cy="17.66" r="23.28" fx="15.63" fy="17.66">
  </radialGradient>
  <radialGradient id="id7" gradientUnits="userSpaceOnUse" gradientTransform="matrix(19.6309 -0.34266 -0.342604 -19.628 -288 328)" xlink:href="#id0" cx="15.75" cy="15.62" r="8.85" fx="15.75" fy="15.62">
  </radialGradient>
  <radialGradient id="id8" gradientUnits="userSpaceOnUse" gradientTransform="matrix(2.40939 -0.0420563 -0.042056 -2.40937 -22 54)" xlink:href="#id0" cx="16.06" cy="15.53" r="72.08" fx="16.06" fy="15.53">
  </radialGradient>
  <radialGradient id="id9" gradientUnits="userSpaceOnUse" gradientTransform="matrix(19.6638 -0.330837 -0.330846 -19.6633 -288 375)" xlink:href="#id0" cx="15.75" cy="17.91" r="8.83" fx="15.75" fy="17.91">
  </radialGradient>
  <radialGradient id="id10" gradientUnits="userSpaceOnUse" gradientTransform="matrix(19.6954 -0.337565 -0.337559 -19.6958 -290 352)" xlink:href="#id0" cx="15.82" cy="16.74" r="8.82" fx="15.82" fy="16.74">
  </radialGradient>
 </defs>
 <g id="Camada_x0020_1">
  <metadata id="CorelCorpID_0Corel-Layer"/>
  <g id="_1661104908528">
   <polygon class="fil0" points="0.19,110.9 113.55,110.9 113.55,0 0.19,0 "/>
   <path class="fil1" d="M109.45 82.03c0,0 -0.22,-0.01 -0.43,-0.02l-8.88 0 0 -0.61c-1.01,0.41 -2.08,0.63 -3.12,0.63 0,0 -0.22,-0.01 -0.42,-0.02l-5.26 0 0 0.03 -12.72 0 0 0.02 -8.64 0 0 -2.61c0,0 0.01,-1.85 0.02,-2.2 -0.08,0 -0.36,0 -0.57,0 0,1.09 0,4.81 0,4.81l-8.74 0 0 -5.21c-1.44,0.58 -3.08,0.73 -4.64,0.73 0,0 -0.53,0 -0.84,0 0,0.9 0,4.46 0,4.46l-10.31 0c0,0 -1.68,-1.85 -2.58,-2.84 -0.91,1 -2.6,2.84 -2.6,2.84l-16.85 0 0 -19.11 16.57 0c0,0 1.84,2.01 2.9,3.17 1.06,-1.15 2.91,-3.15 2.91,-3.15l1.14 0 2.7 -0.02 8.45 0c0.49,-0.03 1.78,-0.04 3.16,0.48l0 -0.43 11.05 0c0.54,-0.04 1.95,-0.06 3.41,0.54l0 -0.54 16.2 0 0 0.55c1.53,-0.62 2.94,-0.58 3.16,-0.56l9.22 -0.01 0 0.59c1.55,-0.64 2.98,-0.6 3.2,-0.58l6.63 -0 0 -62.95 -113.37 0 0 48.66 3.88 -9.21 8.42 0c0,0 0.97,2.31 1.01,2.4 0,-0.35 0,-2.4 0,-2.4l9.86 0c0,0 1.47,3.28 2.18,4.85 0.7,-1.56 2.17,-4.85 2.17,-4.85l6.59 0 0.66 0 2.61 0 9.55 0 0.78 0 2.61 0 7.66 0c0.54,-0.04 1.95,-0.07 3.41,0.54l0 -0.54 8.76 0 0 1.15c1.28,-0.8 2.75,-1.2 4.22,-1.27 0,0 4.7,0.13 4.88,0.13l0.01 -0.02 8.39 0c0,0 0.91,2.18 0.94,2.24 0,-0.55 0,-2.24 0,-2.24l9.06 0c0,0 1.29,2.14 1.44,2.38 0,-0.38 0,-2.38 0,-2.38l8.76 0 0 19.09 -8.94 0c0,0 -1.33,-2.21 -1.51,-2.5 0,0.2 0,2.5 0,2.5l-11.23 0c0,0 -0.96,-2.25 -1.25,-2.91 -1.17,0 -1.8,0 -2.98,0 -0.27,0.65 -1.22,2.91 -1.22,2.91l-7.44 0 -0.19 -0.03c-0.83,-0.12 -1.9,-0.5 -2.96,-1.17l0 1.24 -6.15 0c0,0 0,-0.04 0,-0.05l-7.77 0 0 -2.61c0,0 0.01,-1.85 0.02,-2.2 -0.08,0 -0.36,0 -0.57,0 0,1.1 0,4.81 0,4.81l-5.35 0 -3.38 0 -9.55 0 -0.66 0 -8.12 0c0,0 0,-0.24 0,-0.29 -0.04,0.09 -0.13,0.29 -0.13,0.29l-6.22 0c0,0 -0.11,-0.23 -0.17,-0.36 0,0.08 0,0.36 0,0.36l-11.29 0c0,0 -0.95,-2.26 -1.22,-2.91 -1.17,0 -1.81,0 -2.98,0 -0.28,0.66 -1.24,2.91 -1.24,2.91l-5.34 0 0 52.36 113.37 0 0 -30c-1.26,0.77 -2.73,1.13 -4.11,1.13z"/>
   <path class="fil2" d="M59.05 55.93l0 -2.7c0,0 -0.14,-2.11 -2.35,-2.11l-3.43 0 0 4.81 -3.52 0 0 -13.87 8.54 0c0,0 4.46,-0.54 4.46,4.06 0,2.39 -1.97,3.24 -1.97,3.24 0,0 1.71,0.8 1.71,3.15l0 3.42 -3.45 0zm-5.77 -8.07l3.64 0c1.06,0 1.93,-0.59 1.93,-1.32 0,-0.73 -0.87,-1.32 -1.93,-1.32l-3.64 0 0 2.63z"/>
   <path class="fil3" d="M100.6 55.93l-5.58 -9.27 0 9.27 -3.03 0 -0.56 0 -3.31 0 -1.25 -2.91 -6.43 0 -1.22 2.91 -3.24 0 -0.59 0 -1.69 0c0,0 -4.74,-0.68 -4.74,-6.55 0,-7.7 5.38,-7.39 5.56,-7.44l4.34 0.12 0 3.12 -3.56 0.05c0,0 -2.33,0 -2.61,3.03 -0.03,0.35 -0.05,0.67 -0.05,0.96 0.01,4.69 4.07,3.23 4.2,3.19l4.36 -10.35 4.93 0 5.28 12.58 0 -12.58 4.98 0 5.52 9.13 0 -9.13 3.55 0 0 13.87 -4.86 0zm-18.66 -6.45l3.43 0 -1.69 -4.13 -1.74 4.13 0 0z"/>
   <path class="fil4" d="M31.43 55.93l0 -9.57 -4.41 9.57 -2.89 0 -4.44 -9.53 0 9.53 -3.07 0 -0.47 0 -3.4 0 -1.22 -2.91 -6.43 0 -1.24 2.91 -3.85 0 5.84 -13.87 4.95 0 5.35 12.74 0 -12.74 5.56 0 3.87 8.61 3.85 -8.61 5.56 0 0 13.87 -3.57 0zm-24.83 -6.45l3.43 0 -1.71 -4.13 -1.71 4.13 0 0z"/>
   <polygon class="fil5" points="36.94,55.93 36.94,42.06 47.93,42.06 47.93,45.3 40.49,45.3 40.49,47.43 47.74,47.43 47.74,50.58 40.49,50.58 40.49,52.93 47.93,52.93 47.93,55.93 "/>
   <polygon class="fil6" points="64.22,55.98 67.76,55.98 67.76,42.06 64.22,42.06 "/>
   <path class="fil7" d="M72.64 79.45l0 -2.7c0,0 -0.14,-2.11 -2.35,-2.11l-3.42 0 0 4.81 -3.52 0 0 -13.87 8.54 0c0,0 4.46,-0.54 4.46,4.06 0,2.4 -1.97,3.24 -1.97,3.24 0,0 1.69,0.8 1.69,3.14l0 3.43 -3.43 0zm-5.77 -8.07l3.64 0c1.05,0 1.92,-0.59 1.92,-1.31 0,-0.73 -0.87,-1.32 -1.92,-1.32l-3.64 0 0 2.63z"/>
   <path class="fil8" d="M49.17 79.43l-3.08 0 -3.73 -4.11 -3.76 4.11 -13.1 0 0 -13.89 12.82 0 4.04 4.41 4.06 -4.39 2.7 0 0 -0.02 8.54 0c0,0 4.46,-0.49 4.46,4.08 0,4.09 -1.48,5.35 -6.03,5.35l-3.45 0 0 4.46 -3.47 0zm-4.41 -6.83l4.36 4.83 0 -9.65 -4.36 4.81 0 0zm-15.7 3.83l7.42 0 3.47 -3.83 -3.47 -3.8 -7.42 0 0 2.13 7.23 0 0 3.15 -7.23 0 0 2.35zm23.59 -5.07l3.64 0c1.05,0 1.92,-0.59 1.92,-1.32 0,-0.72 -0.87,-1.31 -1.92,-1.31l-3.64 0 0 2.63z"/>
   <path class="fil9" d="M96.65 79.4l-6.27 0 0 -3.19 5.49 0c0,0 1.97,0.24 1.97,-1.1 0,-1.25 -2.98,-1.15 -2.98,-1.15 0,0 -4.86,0.42 -4.86,-4.13 0,-4.53 4.39,-4.27 4.39,-4.27l6.76 0 0 3.24 -5.44 0c0,0 -1.88,-0.38 -1.88,0.99 0,1.15 2.56,0.98 2.56,0.98 0,0 5.38,-0.4 5.38,3.78 0,4.48 -3.46,4.88 -4.69,4.88 -0.26,0 -0.42,-0.02 -0.42,-0.02z"/>
   <polygon class="fil10" points="77.81,79.43 77.81,65.58 88.79,65.58 88.79,68.79 81.35,68.79 81.35,70.93 88.6,70.93 88.6,74.08 81.35,74.08 81.35,76.42 88.79,76.42 88.79,79.43 "/>
   <path class="fil11" d="M109.07 79.4l-6.27 0 0 -3.19 5.47 0c0,0 1.99,0.24 1.99,-1.1 0,-1.25 -2.98,-1.15 -2.98,-1.15 0,0 -4.86,0.42 -4.86,-4.13 0,-4.53 4.39,-4.27 4.39,-4.27l6.74 0 0 3.24 -5.42 0c0,0 -1.88,-0.38 -1.88,0.99 0,1.15 2.56,0.98 2.56,0.98 0,0 5.37,-0.4 5.37,3.78 0,4.48 -3.46,4.88 -4.69,4.88 -0.27,0 -0.42,-0.02 -0.42,-0.02z"/>
  </g>
 </g>
</svg>
