<?xml version="1.0" encoding="UTF-8"?>
<!DOCTYPE svg PUBLIC "-//W3C//DTD SVG 1.1//EN" "http://www.w3.org/Graphics/SVG/1.1/DTD/svg11.dtd">
<!-- Creator: CorelDRAW 2019 (64 Bit) -->
<svg xmlns="http://www.w3.org/2000/svg" xml:space="preserve" width="15.1352mm" height="10.4441mm" version="1.1" style="shape-rendering:geometricPrecision; text-rendering:geometricPrecision; image-rendering:optimizeQuality; fill-rule:evenodd; clip-rule:evenodd"
viewBox="0 0 268.57 185.33"
 xmlns:xlink="http://www.w3.org/1999/xlink">
 <defs>
  <style type="text/css">
   <![CDATA[
    .fil1 {fill:#FEFEFE;fill-rule:nonzero}
    .fil0 {fill:#0057A6;fill-rule:nonzero}
   ]]>
  </style>
 </defs>
 <g id="Camada_x0020_1">
  <metadata id="CorelCorpID_0Corel-Layer"/>
  <g id="_1661264531920">
   <path class="fil0" d="M145.36 107.42c29.36,0.14 56.17,-23.94 56.17,-53.24 0,-32.04 -26.8,-54.19 -56.17,-54.18l-25.27 0c-29.71,-0.01 -54.17,22.14 -54.17,54.18 0,29.31 24.46,53.39 54.17,53.24l25.27 0z"/>
   <path class="fil1" d="M131.36 82.71l0 -58.18c11.7,4.48 20,15.81 20.02,29.09 -0.02,13.28 -8.32,24.6 -20.02,29.09zm-42.32 -29.09c0.03,-13.27 8.32,-24.59 20,-29.09l0 58.17c-11.69,-4.49 -19.98,-15.81 -20,-29.08zm31.16 -49.17c-27.15,0.01 -49.16,22.02 -49.16,49.17 0.01,27.16 22.01,49.16 49.16,49.17 27.16,-0.01 49.17,-22.01 49.17,-49.17 -0,-27.16 -22.01,-49.17 -49.17,-49.17z"/>
   <path class="fil0" d="M10.98 144.08c0,4.37 3.13,4.88 5.91,4.88 12.27,0 16.3,-9.26 16.3,-17.72 0,-10.62 -6.81,-18.28 -17.77,-18.28 -2.33,0 -3.41,0.17 -4.43,0.23l0 30.89zm-5.57 -26.64c0,-5.11 -2.67,-4.77 -5.22,-4.82l0 -1.48c2.21,0.11 4.48,0.11 6.7,0.11 2.38,0 5.62,-0.11 9.83,-0.11 14.71,0 22.72,9.82 22.72,19.88 0,5.63 -3.3,19.76 -23.4,19.76 -2.89,0 -5.57,-0.11 -8.24,-0.11 -2.55,0 -5.06,0.05 -7.61,0.11l0 -1.48c3.41,-0.34 5.06,-0.45 5.22,-4.32l0 -27.55z"/>
   <path class="fil0" d="M47.51 116.09c-1.48,0 -2.78,-1.36 -2.78,-2.84 0,-1.42 1.36,-2.73 2.78,-2.73 1.47,0 2.78,1.2 2.78,2.73 0,1.53 -1.25,2.84 -2.78,2.84zm-6.08 33.22l1.08 0c1.59,0 2.72,0 2.72,-1.88l0 -15.39c0,-2.5 -0.85,-2.84 -2.95,-3.97l0 -0.91c2.67,-0.8 5.85,-1.88 6.08,-2.05 0.4,-0.23 0.74,-0.29 1.03,-0.29 0.28,0 0.4,0.34 0.4,0.8l0 21.8c0,1.88 1.25,1.88 2.84,1.88l0.96 0 0 1.48c-1.93,0 -3.92,-0.11 -5.96,-0.11 -2.05,0 -4.09,0.05 -6.19,0.11l0 -1.48z"/>
   <path class="fil0" d="M58.98 132.38c0,-2.1 -0.63,-2.67 -3.29,-3.74l0 -1.08c2.44,-0.79 4.76,-1.53 7.49,-2.73 0.17,0 0.34,0.12 0.34,0.57l0 3.69c3.24,-2.32 6.02,-4.26 9.83,-4.26 4.82,0 6.53,3.52 6.53,7.95l0 14.65c0,1.88 1.25,1.88 2.84,1.88l1.02 0 0 1.48c-1.99,0 -3.98,-0.11 -6.02,-0.11 -2.05,0 -4.09,0.05 -6.14,0.11l0 -1.48 1.02 0c1.59,0 2.72,0 2.72,-1.88l0 -14.7c0,-3.24 -1.98,-4.83 -5.22,-4.83 -1.82,0 -4.71,1.48 -6.59,2.73l0 16.8c0,1.88 1.25,1.88 2.85,1.88l1.02 0 0 1.48c-1.99,0 -3.98,-0.11 -6.02,-0.11 -2.04,0 -4.09,0.05 -6.13,0.11l0 -1.48 1.02 0c1.59,0 2.73,0 2.73,-1.88l0 -15.05z"/>
   <path class="fil0" d="M98.11 133.29c1.42,0 1.58,-0.74 1.58,-1.42 0,-2.9 -1.76,-5.23 -4.94,-5.23 -3.46,0 -5.85,2.55 -6.53,6.64l9.88 0zm-10.05 1.82c-0.12,0.51 -0.12,1.36 0,3.3 0.33,5.39 3.8,9.82 8.34,9.82 3.13,0 5.57,-1.71 7.67,-3.8l0.79 0.79c-2.61,3.46 -5.85,6.42 -10.5,6.42 -9.03,0 -10.85,-8.75 -10.85,-12.38 0,-11.13 7.5,-14.43 11.47,-14.43 4.6,0 9.55,2.9 9.6,8.92 0,0.34 0,0.68 -0.05,1.02l-0.52 0.34 -15.95 0z"/>
   <path class="fil0" d="M105.89 149.31l1.53 0c1.58,0 2.72,0 2.72,-1.88l0 -15.95c0,-1.76 -2.1,-2.1 -2.95,-2.56l0 -0.85c4.15,-1.76 6.42,-3.24 6.94,-3.24 0.33,0 0.5,0.17 0.5,0.74l0 5.11 0.12 0c1.41,-2.21 3.8,-5.85 7.26,-5.85 1.42,0 3.24,0.96 3.24,3.01 0,1.54 -1.08,2.9 -2.67,2.9 -1.77,0 -1.77,-1.37 -3.75,-1.37 -0.97,0 -4.15,1.31 -4.15,4.71l0 13.34c0,1.88 1.13,1.88 2.73,1.88l3.18 0 0 1.48c-3.12,-0.06 -5.5,-0.11 -7.95,-0.11 -2.33,0 -4.71,0.05 -6.76,0.11l0 -1.48z"/>
   <path class="fil0" d="M127.75 142.89c0.74,3.75 3.01,6.93 7.16,6.93 3.34,0 4.59,-2.05 4.59,-4.03 0,-6.7 -12.37,-4.55 -12.37,-13.69 0,-3.18 2.56,-7.27 8.8,-7.27 1.81,0 4.26,0.51 6.47,1.65l0.4 5.79 -1.3 0c-0.57,-3.57 -2.56,-5.62 -6.19,-5.62 -2.27,0 -4.43,1.31 -4.43,3.75 0,6.65 13.18,4.6 13.18,13.52 0,3.75 -3.01,7.72 -9.77,7.72 -2.27,0 -4.94,-0.79 -6.93,-1.93l-0.63 -6.53 1.02 -0.29z"/>
   <path class="fil0" d="M195.33 121.42l-1.42 0c-1.08,-6.64 -5.8,-9.31 -12.15,-9.31 -6.53,0 -16.02,4.37 -16.02,18 0,11.48 8.19,19.71 16.93,19.71 5.62,0 10.28,-3.86 11.42,-9.83l1.31 0.34 -1.31 8.29c-2.38,1.48 -8.81,3.01 -12.55,3.01 -13.29,0 -21.69,-8.57 -21.69,-21.35 0,-11.64 10.39,-20 21.52,-20 4.6,0 9.03,1.48 13.4,3.01l0.57 8.12z"/>
   <path class="fil0" d="M197.38 149.31l1.08 0c1.59,0 2.73,0 2.73,-1.88l0 -31.63c0,-3.69 -0.86,-3.81 -3.01,-4.43l0 -0.91c2.27,-0.74 4.65,-1.76 5.85,-2.45 0.62,-0.34 1.08,-0.63 1.25,-0.63 0.34,0 0.46,0.34 0.46,0.8l0 39.24c0,1.88 1.25,1.88 2.84,1.88l0.96 0 0 1.48c-1.93,0 -3.92,-0.11 -5.96,-0.11 -2.04,0 -4.09,0.05 -6.19,0.11l0 -1.48z"/>
   <path class="fil0" d="M233.85 147.66c0,1.03 0.62,1.08 1.59,1.08 0.68,0 1.53,-0.05 2.27,-0.05l0 1.19c-2.45,0.23 -7.1,1.42 -8.18,1.76l-0.28 -0.17 0 -4.6c-3.4,2.78 -6.02,4.77 -10.06,4.77 -3.07,0 -6.24,-1.99 -6.24,-6.75l0 -14.54c0,-1.48 -0.23,-2.9 -3.4,-3.18l0 -1.08c2.05,-0.06 6.58,-0.39 7.32,-0.39 0.63,0 0.63,0.39 0.63,1.64l0 14.65c0,1.71 0,6.59 4.94,6.59 1.93,0 4.48,-1.48 6.87,-3.46l0 -15.28c0,-1.13 -2.72,-1.75 -4.76,-2.32l0 -1.02c5.11,-0.34 8.29,-0.79 8.86,-0.79 0.46,0 0.46,0.39 0.46,1.02l0 20.95z"/>
   <path class="fil0" d="M245.15 144.36c0,2.16 2.04,5.8 5.85,5.8 6.08,0 8.63,-5.97 8.63,-11.02 0,-6.13 -4.65,-11.24 -9.08,-11.24 -2.11,0 -3.86,1.37 -5.4,2.67l0 13.79zm0 -15.45c2.27,-1.93 5.34,-4.09 8.46,-4.09 6.59,0 10.56,5.74 10.56,11.93 0,7.44 -5.45,14.88 -13.57,14.88 -4.2,0 -6.41,-1.36 -7.89,-1.99l-1.7 1.3 -1.19 -0.62c0.5,-3.35 0.79,-6.65 0.79,-10.11l0 -24.42c0,-3.69 -0.86,-3.81 -3.01,-4.43l0 -0.91c2.28,-0.74 4.66,-1.76 5.85,-2.44 0.62,-0.34 1.08,-0.62 1.25,-0.62 0.34,0 0.45,0.34 0.45,0.79l0 20.73z"/>
   <path class="fil0" d="M0.13 183.8l0.43 0c1.11,0 2.28,-0.15 2.28,-1.76l0 -16.19c0,-1.61 -1.17,-1.77 -2.28,-1.77l-0.43 0 0 -0.93c1.2,0 3.06,0.12 4.58,0.12 1.54,0 3.39,-0.12 4.85,-0.12l0 0.93 -0.43 0c-1.11,0 -2.29,0.15 -2.29,1.77l0 16.19c0,1.61 1.18,1.76 2.29,1.76l0.43 0 0 0.93c-1.48,0 -3.34,-0.12 -4.88,-0.12 -1.52,0 -3.34,0.12 -4.55,0.12l0 -0.93z"/>
   <path class="fil0" d="M9.43 184.6l0 -0.66 -0.3 0c-1.1,0 -2.42,-0.19 -2.42,-1.9l0 -16.19c0.01,-1.71 1.32,-1.9 2.42,-1.9l0.3 0 0 -0.66c-1.43,0 -3.22,0.12 -4.71,0.12 -1.47,0 -3.24,-0.12 -4.44,-0.12l0 0.66 0.29 0c1.1,0 2.42,0.19 2.42,1.9l0 16.19c0,1.71 -1.32,1.9 -2.42,1.9l-0.29 0 0 0.66c1.2,-0.01 2.94,-0.13 4.41,-0.13 1.5,0 3.29,0.12 4.75,0.13zm0.13 0.26c-1.5,0 -3.34,-0.12 -4.88,-0.12 -1.51,0 -3.33,0.12 -4.55,0.12l-0.13 0 0 -1.2 0.56 0c1.13,-0.02 2.14,-0.12 2.15,-1.63l0 -16.19c-0.01,-1.51 -1.03,-1.61 -2.15,-1.63l-0.56 0 0 -1.2 0.13 0c1.22,0 3.07,0.12 4.58,0.12 1.54,0 3.39,-0.12 4.85,-0.12l0.14 0 0 1.2 -0.57 0c-1.12,0.02 -2.15,0.12 -2.15,1.63l0 16.19c0.01,1.51 1.03,1.6 2.15,1.63l0.57 0 0 1.2 -0.14 0z"/>
   <path class="fil0" d="M30.79 178.65l0.06 -0.06 0 -11.58c0,-2.54 -1.77,-2.91 -2.69,-2.91l-0.68 0 0 -0.93c1.46,0 2.88,0.12 4.33,0.12 1.26,0 2.54,-0.12 3.8,-0.12l0 0.93 -0.46 0c-1.3,0 -2.75,0.25 -2.75,3.93l0 14.06c0,1.08 0.03,2.16 0.18,3.12l-1.17 0 -15.91 -17.74 0 12.73c0,2.68 0.52,3.61 2.9,3.61l0.52 0 0 0.93c-1.33,0 -2.65,-0.12 -3.99,-0.12 -1.39,0 -2.81,0.12 -4.2,0.12l0 -0.93 0.43 0c2.13,0 2.78,-1.45 2.78,-3.92l0 -13.02c0,-1.73 -1.42,-2.78 -2.81,-2.78l-0.4 0 0 -0.93c1.17,0 2.38,0.12 3.55,0.12 0.93,0 1.83,-0.12 2.75,-0.12l13.75 15.48z"/>
   <path class="fil0" d="M30.72 178.58l0 -0.01 -0.02 -0.02 0.02 0.03zm0.07 0.07l0.1 -0.09 -0.1 0.09zm0.62 6.41l1.02 0c-0.14,-0.93 -0.16,-1.96 -0.16,-2.98l0 -14.06c0,-3.71 1.55,-4.06 2.88,-4.06l0.33 0 0 -0.66c-1.22,0.01 -2.44,0.12 -3.67,0.12 -1.41,0 -2.79,-0.11 -4.19,-0.12l-0 0.66 0.54 0c0.95,0 2.82,0.42 2.82,3.04l-0.04 11.68 -0.06 0.07 -0.1 0.1 -13.74 -15.54c-0.92,0 -1.81,0.12 -2.75,0.12 -1.13,0 -2.29,-0.11 -3.41,-0.12l-0 0.66 0.27 0c1.45,0 2.94,1.11 2.94,2.91l0 13.01c0,2.47 -0.69,4.05 -2.91,4.06l-0.3 -0.01 0 0.67c1.34,-0.01 2.72,-0.13 4.07,-0.13 1.29,0 2.58,0.12 3.85,0.13l0 -0.65 -0.39 0c-2.43,-0.01 -3.03,-1.07 -3.04,-3.75l0 -13.08 16.05 17.95zm1.17 0.27l-1.28 -0.05 -15.68 -17.48 0 12.39c0.04,2.68 0.45,3.45 2.77,3.48l0.66 0 0 1.2 -0.14 0c-1.34,0 -2.67,-0.12 -3.99,-0.12 -1.38,0 -2.8,0.12 -4.2,0.12l-0.13 0 0 -1.2 0.57 0c2.04,-0.01 2.63,-1.32 2.65,-3.79l0 -13.01c-0.01,-1.64 -1.35,-2.65 -2.68,-2.65l-0.54 0 0 -1.19 0.13 0c1.18,0 2.39,0.12 3.55,0.12 0.92,0 1.81,-0.12 2.86,-0.07l13.58 15.29 0 -11.37c-0.02,-2.46 -1.66,-2.76 -2.56,-2.78l-0.82 0 0 -1.19 0.14 0c1.46,0 2.88,0.12 4.33,0.12 1.26,0 2.53,-0.12 3.8,-0.12l0.13 0 0 1.19 -0.6 0c-1.28,0.04 -2.58,0.15 -2.62,3.79l0 14.06c0,1.08 0.03,2.15 0.18,3.09l0.03 0.16 -0.16 0z"/>
   <path class="fil0" d="M40.24 164.71c-2.32,0 -2.41,0.56 -2.87,2.81l-0.93 0c0.12,-0.86 0.28,-1.73 0.37,-2.62 0.12,-0.87 0.18,-1.73 0.18,-2.62l0.74 0c0.25,0.93 1.02,0.89 1.86,0.89l15.94 0c0.84,0 1.61,-0.03 1.67,-0.96l0.74 0.12c-0.12,0.83 -0.24,1.67 -0.34,2.5 -0.06,0.84 -0.06,1.67 -0.06,2.5l-0.93 0.34c-0.06,-1.14 -0.22,-2.97 -2.29,-2.97l-5.07 0 0 16.44c0,2.38 1.08,2.65 2.56,2.65l0.59 0 0 0.93c-1.2,0 -3.37,-0.12 -5.04,-0.12 -1.85,0 -4.02,0.12 -5.23,0.12l0 -0.93 0.59 0c1.7,0 2.56,-0.15 2.56,-2.59l0 -16.5 -5.07 0z"/>
   <path class="fil0" d="M52.42 184.87c-1.22,0 -3.38,-0.12 -5.04,-0.12 -1.85,0 -4.01,0.12 -5.23,0.12l-0.13 0 0 -1.2 0.72 0c1.7,-0.04 2.39,-0.06 2.43,-2.46l0 -16.37 -4.93 0 0 -0.27 5.2 0 0 16.64c0,2.48 -1,2.73 -2.7,2.73l-0.46 0 0 0.65c1.22,-0.01 3.3,-0.12 5.09,-0.12 1.61,0 3.68,0.12 4.9,0.12l0 -0.65 -0.45 0c-1.49,-0.01 -2.7,-0.37 -2.7,-2.8l0 -16.58 5.2 0c2.07,0.01 2.35,1.77 2.42,2.92l0.67 -0.25c0,-0.8 0,-1.61 0.06,-2.43 0.09,-0.79 0.2,-1.58 0.32,-2.37l-0.47 -0.08c-0.14,0.9 -1.01,0.95 -1.79,0.94l-16.1 0c-0.73,0 -1.52,-0.03 -1.8,-0.9l-0.51 0c-0,0.86 -0.06,1.68 -0.18,2.51 -0.09,0.85 -0.23,1.66 -0.34,2.48l0.66 0c0.41,-2.15 0.67,-2.85 2.98,-2.82l0 0.27c-2.29,0.04 -2.24,0.42 -2.74,2.71l-0.02 0.1 -1.19 0 0.02 -0.16c0.13,-0.86 0.28,-1.73 0.37,-2.63 0.13,-0.86 0.19,-1.71 0.19,-2.6l0 -0.14 0.98 0 0.02 0.1c0.21,0.78 0.78,0.78 1.57,0.8l16.1 0c0.86,-0.01 1.49,-0.02 1.54,-0.83l0.01 -0.15 0.14 0.03 0.87 0.14 -0.02 0.13c-0.12,0.83 -0.24,1.66 -0.34,2.49 -0.06,0.83 -0.06,1.66 -0.06,2.49l0 0.09 -0.09 0.04 -1.09 0.4 -0.01 -0.18c-0.08,-1.16 -0.21,-2.84 -2.16,-2.84l-4.93 0 0 16.31c0.03,2.33 0.95,2.49 2.43,2.52l0.72 0 0 1.2 -0.13 0z"/>
   <path class="fil0" d="M58.93 183.8l0.43 0c1.11,0 2.28,-0.15 2.28,-1.76l0 -16.19c0,-1.61 -1.17,-1.77 -2.28,-1.77l-0.43 0 0 -0.93c1.88,0 5.1,0.12 7.69,0.12 2.6,0 5.81,-0.12 7.91,-0.12 -0.05,1.33 -0.02,3.37 0.07,4.73l-0.93 0.25c-0.15,-2.01 -0.52,-3.61 -3.77,-3.61l-4.29 0 0 8.09 3.67 0c1.85,0 2.26,-1.05 2.44,-2.72l0.92 0c-0.06,1.21 -0.09,2.41 -0.09,3.62 0,1.17 0.03,2.35 0.09,3.52l-0.92 0.18c-0.18,-1.85 -0.28,-3.06 -2.41,-3.06l-3.7 0 0 7.2c0,2.01 1.79,2.01 3.76,2.01 3.71,0 5.35,-0.25 6.27,-3.77l0.86 0.21c-0.4,1.64 -0.77,3.28 -1.05,4.92 -1.98,0 -5.53,-0.12 -8.31,-0.12 -2.79,0 -6.46,0.12 -8.22,0.12l0 -0.93z"/>
   <path class="fil0" d="M75.35 184.6c0.27,-1.56 0.62,-3.12 1,-4.68l-0.61 -0.15c-0.93,3.46 -2.72,3.77 -6.37,3.74 -1.95,0 -3.9,0 -3.9,-2.14l0 -7.33 3.84 0c2.16,-0.02 2.38,1.28 2.53,3.04l0.67 -0.14c-0.06,-1.14 -0.09,-2.28 -0.09,-3.41 0,-1.16 0.03,-2.32 0.09,-3.49l-0.67 0c-0.17,1.61 -0.68,2.74 -2.56,2.72l-3.81 0 0 -8.37 4.43 0c3.22,-0.02 3.75,1.64 3.89,3.58l0.67 -0.18c-0.06,-0.87 -0.09,-1.99 -0.09,-3.02 0,-0.53 0.01,-1.03 0.03,-1.47 -2.1,0.01 -5.23,0.12 -7.77,0.12 -2.54,0 -5.66,-0.11 -7.56,-0.12l0 0.66 0.3 0c1.1,0 2.42,0.19 2.42,1.9l0 16.19c-0.01,1.71 -1.32,1.89 -2.42,1.9l-0.3 0 0 0.65c1.8,-0 5.37,-0.12 8.09,-0.12 2.73,0 6.21,0.12 8.2,0.12zm0.11 0.27c-1.98,0 -5.54,-0.13 -8.31,-0.13 -2.78,0 -6.46,0.13 -8.22,0.13l-0.13 0 0 -1.2 0.57 0c1.12,-0.02 2.13,-0.12 2.15,-1.63l0 -16.19c-0.01,-1.51 -1.03,-1.61 -2.15,-1.63l-0.57 0 0 -1.19 0.13 0c1.88,0 5.1,0.12 7.69,0.12 2.6,0 5.81,-0.12 7.91,-0.12l0.14 0 -0 0.14c-0.02,0.47 -0.03,1.02 -0.03,1.6 0,1.07 0.03,2.24 0.09,3.12l0 0.11 -0.1 0.03 -1.08 0.28 -0.01 -0.16c-0.18,-2.01 -0.45,-3.46 -3.63,-3.49l-4.16 0 -0 7.82 3.55 0c1.78,-0.02 2.1,-0.93 2.31,-2.59l0.01 -0.12 1.19 0 -0.01 0.14c-0.06,1.2 -0.1,2.41 -0.1,3.61 0,1.17 0.04,2.34 0.1,3.52l0.01 0.11 -0.11 0.02 -1.08 0.21 -0.01 -0.14c-0.21,-1.89 -0.23,-2.92 -2.28,-2.95l-3.57 0 0 7.07c0,1.87 1.62,1.86 3.64,1.87 3.72,-0.02 5.21,-0.2 6.14,-3.67l0.03 -0.12 0.13 0.02 0.99 0.25 -0.03 0.13c-0.4,1.63 -0.77,3.27 -1.05,4.9l-0.02 0.11 -0.11 0z"/>
   <path class="fil0" d="M84.64 173.61l1.51 0c3.09,0 4.76,-1.17 4.76,-4.82 0,-2.75 -1.76,-4.51 -4.51,-4.51 -0.93,0 -1.32,0.09 -1.75,0.12l0 9.21zm-3.96 -7.17c0,-2.25 -1.24,-2.34 -2.2,-2.34l-0.56 0 0 -0.93c0.99,0 2.9,0.12 4.79,0.12 1.85,0 3.34,-0.12 4.97,-0.12 3.89,0 7.36,1.05 7.36,5.44 0,2.78 -1.86,4.48 -4.29,5.44l5.28 7.9c0.87,1.31 1.48,1.67 3,1.85l0 0.93c-1.02,0 -2.01,-0.12 -3.03,-0.12 -0.96,0 -1.95,0.12 -2.9,0.12 -2.38,-3.12 -4.42,-6.46 -6.43,-10.02l-2.04 0 0 6.62c0,2.38 1.11,2.47 2.53,2.47l0.56 0 0 0.93c-1.76,0 -3.55,-0.12 -5.31,-0.12 -1.49,0 -2.94,0.12 -4.48,0.12l0 -0.93 0.56 0c1.15,0 2.2,-0.52 2.2,-1.66l0 -15.7z"/>
   <path class="fil0" d="M86.15 173.47c3.06,-0.02 4.6,-1.09 4.63,-4.68 -0.02,-2.7 -1.69,-4.37 -4.38,-4.38 -0.84,0 -1.23,0.08 -1.62,0.11l0 8.95 1.38 0zm-1.51 0.26l-0.13 0 0 -9.46 0.12 -0.01c0.42,-0.03 0.84,-0.12 1.77,-0.12 2.81,0 4.65,1.83 4.65,4.64 -0.01,3.69 -1.78,4.94 -4.89,4.95l-1.51 0zm0 0.85l2.11 0 0.04 0.07c2.01,3.55 4.04,6.89 6.32,9.95 0.94,0 1.94,-0.13 2.9,-0.13 0.99,0 1.94,0.11 2.9,0.12l0 -0.68c-1.45,-0.18 -2.13,-0.61 -2.97,-1.9l-5.38 -8.05 0.15 -0.06c2.42,-0.95 4.21,-2.6 4.21,-5.32 -0,-4.29 -3.34,-5.28 -7.22,-5.3 -1.63,0 -3.11,0.12 -4.97,0.12 -1.82,0 -3.65,-0.12 -4.66,-0.12l0 0.66 0.43 0c0.96,0 2.32,0.16 2.32,2.48l0 15.7c0,1.24 -1.16,1.8 -2.32,1.81l-0.43 0 0 0.65c1.49,-0 2.9,-0.12 4.35,-0.12 1.73,0 3.47,0.12 5.18,0.12l0 -0.65 -0.42 0c-1.41,-0.01 -2.67,-0.18 -2.67,-2.62l0 -6.74 0.13 0zm14.4 10.28c-1.04,0 -2.02,-0.12 -3.03,-0.12 -0.94,0 -1.93,0.12 -3.01,0.07 -2.37,-3.11 -4.4,-6.43 -6.4,-9.96l-1.83 0 0 6.48c0.03,2.32 0.97,2.31 2.4,2.34l0.69 0 0 1.2 -0.14 0c-1.77,0 -3.56,-0.12 -5.31,-0.12 -1.48,0 -2.93,0.12 -4.48,0.12l-0.13 0 0 -1.2 0.69 0c1.11,-0.01 2.05,-0.49 2.06,-1.53l0 -15.7c-0.02,-2.19 -1.1,-2.18 -2.06,-2.21l-0.69 0 0 -1.2 0.13 0c1,0 2.91,0.12 4.79,0.12 1.84,0 3.33,-0.12 4.97,-0.12 3.9,0.01 7.48,1.08 7.49,5.57 0,2.79 -1.84,4.53 -4.23,5.5l5.19 7.77c0.86,1.28 1.4,1.6 2.91,1.8l0.11 0.02 0 1.18 -0.13 0z"/>
   <path class="fil0" d="M120.02 178.65l0.06 -0.06 0 -11.58c0,-2.54 -1.76,-2.91 -2.69,-2.91l-0.68 0 0 -0.93c1.45,0 2.87,0.12 4.32,0.12 1.27,0 2.53,-0.12 3.81,-0.12l0 0.93 -0.47 0c-1.3,0 -2.75,0.25 -2.75,3.93l0 14.06c0,1.08 0.03,2.16 0.18,3.12l-1.17 0 -15.91 -17.74 0 12.73c0,2.68 0.53,3.61 2.91,3.61l0.52 0 0 0.93c-1.33,0 -2.66,-0.12 -3.98,-0.12 -1.39,0 -2.82,0.12 -4.2,0.12l0 -0.93 0.43 0c2.13,0 2.79,-1.45 2.79,-3.92l0 -13.02c0,-1.73 -1.42,-2.78 -2.81,-2.78l-0.4 0 0 -0.93c1.17,0 2.38,0.12 3.55,0.12 0.92,0 1.82,-0.12 2.75,-0.12l13.76 15.48z"/>
   <path class="fil0" d="M119.94 178.58l0 -0.01 -0.02 -0.02 0.02 0.03zm0.07 0.06l0.1 -0.09 -0.1 0.09zm0.62 6.41l1.02 0c-0.13,-0.93 -0.16,-1.96 -0.16,-2.98l0 -14.06c0,-3.71 1.57,-4.05 2.89,-4.06l0.32 0 0 -0.66c-1.21,0.01 -2.43,0.12 -3.66,0.12 -1.42,0 -2.79,-0.11 -4.19,-0.12l0 0.66 0.55 0c0.95,0.01 2.82,0.42 2.82,3.04l-0.04 11.68 -0.06 0.07 -0.1 0.1 -13.75 -15.54c-0.92,0 -1.81,0.12 -2.75,0.12 -1.15,0 -2.3,-0.11 -3.43,-0.12l0 0.66 0.28 0c1.45,0.01 2.94,1.1 2.94,2.91l0 13.01c0,2.48 -0.7,4.06 -2.91,4.07l-0.3 -0.01 0 0.65c1.34,-0.01 2.71,-0.12 4.07,-0.12 1.3,0 2.58,0.12 3.86,0.12l0 -0.65 -0.39 0c-2.43,-0.01 -3.04,-1.07 -3.05,-3.76l0 -13.07 16.06 17.94zm1.17 0.27l-1.27 -0.04 -15.68 -17.48 0 12.38c0.04,2.69 0.45,3.45 2.78,3.48l0.65 0 0 1.2 -0.13 0c-1.34,0 -2.66,-0.13 -3.99,-0.13 -1.38,0 -2.81,0.13 -4.2,0.13l-0.14 0 0 -1.2 0.57 0c2.04,-0.01 2.63,-1.32 2.65,-3.79l0 -13.01c-0,-1.64 -1.35,-2.64 -2.67,-2.64l-0.54 0 0 -1.2 0.14 0c1.18,0 2.38,0.12 3.55,0.12 0.91,0 1.8,-0.12 2.84,-0.08l13.59 15.3 0 -11.37c-0.01,-2.46 -1.65,-2.76 -2.55,-2.77l-0.82 0 0 -1.2 0.14 0c1.46,0 2.88,0.12 4.33,0.12 1.26,0 2.53,-0.12 3.8,-0.12l0.14 0 0 1.2 -0.6 0c-1.28,0.03 -2.59,0.15 -2.62,3.79l0 14.06c0,1.08 0.03,2.15 0.18,3.1l0.02 0.15 -0.15 0z"/>
   <path class="fil0" d="M134.32 166.63l-0.06 0 -2.87 8.75 5.77 0 -2.84 -8.75zm-4.51 13.69c-0.31,1.05 -0.69,1.86 -0.69,2.41 0,0.93 1.3,1.08 2.32,1.08l0.34 0 0 0.93c-1.24,-0.07 -2.5,-0.12 -3.74,-0.12 -1.11,0 -2.22,0.06 -3.33,0.12l0 -0.93 0.19 0c1.2,0 2.23,-0.71 2.68,-2.01l4.95 -14.18c0.4,-1.15 0.96,-2.69 1.15,-3.84 0.99,-0.34 2.22,-0.95 2.81,-1.33 0.09,-0.03 0.15,-0.06 0.25,-0.06 0.09,0 0.15,0 0.22,0.1 0.09,0.25 0.18,0.53 0.28,0.77l5.69 16.16c0.37,1.08 0.74,2.22 1.14,3.15 0.37,0.87 1.02,1.23 2.04,1.23l0.18 0 0 0.93c-1.39,-0.07 -2.78,-0.12 -4.26,-0.12 -1.51,0 -3.06,0.06 -4.64,0.12l0 -0.93 0.34 0c0.71,0 1.92,-0.12 1.92,-0.89 0,-0.4 -0.28,-1.24 -0.63,-2.23l-1.2 -3.58 -7.02 0 -0.98 3.21z"/>
   <path class="fil0" d="M134.19 166.67l0.07 -0.02 -0.07 0.02zm-2.62 8.57l5.41 0 -2.69 -8.28 -2.72 8.28zm-0.37 0.27l2.96 -9.01 0.17 0 0 0.14 -0.03 0.01 0.03 -0.01 0 -0.14 0.09 0 2.94 9.01 -6.15 0zm6.31 9.09c1.53,-0.06 3.03,-0.12 4.51,-0.12 1.44,0 2.78,0.06 4.13,0.12l0 -0.65 -0.05 0c-1.06,0.01 -1.79,-0.41 -2.17,-1.32 -0.4,-0.94 -0.78,-2.08 -1.14,-3.17l-5.69 -16.16c-0.1,-0.24 -0.19,-0.53 -0.27,-0.75 -0.02,-0.03 -0.02,-0.03 -0.05,-0.03l-0.06 0c-0.06,0 -0.1,0.02 -0.18,0.04 -0.59,0.38 -1.83,0.99 -2.75,1.24 -0.19,1.17 -0.75,2.71 -1.15,3.86l-4.94 14.18c-0.47,1.34 -1.56,2.11 -2.81,2.1l-0.05 0 0 0.65c1.06,-0.06 2.13,-0.12 3.2,-0.12 1.19,0 2.42,0.06 3.59,0.12l0 -0.65 -0.2 0c-1.01,-0.01 -2.41,-0.12 -2.45,-1.21 0,-0.62 0.38,-1.41 0.68,-2.45l0.13 0.04 -0.13 -0.04 1.02 -3.3 7.21 0 1.24 3.67c0.34,0.99 0.63,1.82 0.63,2.27 -0.05,0.95 -1.35,1.02 -2.05,1.03l-0.21 0 0 0.65zm8.76 0.28c-1.39,-0.06 -2.78,-0.13 -4.25,-0.13 -1.51,0 -3.05,0.07 -4.63,0.13l-0.14 0.01 0 -1.21 0.48 0c0.72,0 1.78,-0.16 1.78,-0.75 0.01,-0.35 -0.27,-1.2 -0.61,-2.18l-1.17 -3.5 -6.82 0 -0.96 3.12c-0.31,1.05 -0.68,1.87 -0.68,2.37 0.01,0.75 1.17,0.94 2.19,0.94l0.47 0 0 1.21 -0.14 -0.01c-1.24,-0.06 -2.5,-0.13 -3.73,-0.13 -1.11,0 -2.22,0.07 -3.33,0.13l-0.14 0.01 0 -1.21 0.32 0c1.15,-0 2.11,-0.66 2.56,-1.91l4.95 -14.19c0.4,-1.14 0.96,-2.68 1.23,-3.92 0.97,-0.33 2.21,-0.95 2.81,-1.33 0.09,-0.03 0.17,-0.07 0.3,-0.07 0.08,-0 0.24,0.02 0.34,0.18 0.09,0.25 0.18,0.53 0.28,0.78l5.69 16.16c0.36,1.08 0.73,2.23 1.14,3.14 0.36,0.83 0.93,1.15 1.92,1.15l0.32 0 0 1.21 -0.14 -0.01z"/>
   <path class="fil0" d="M147.64 164.71c-2.32,0 -2.41,0.56 -2.88,2.81l-0.93 0c0.12,-0.86 0.28,-1.73 0.38,-2.62 0.12,-0.87 0.18,-1.73 0.18,-2.62l0.74 0c0.25,0.93 1.02,0.89 1.85,0.89l15.95 0c0.83,0 1.6,-0.03 1.66,-0.96l0.74 0.12c-0.12,0.83 -0.24,1.67 -0.34,2.5 -0.07,0.84 -0.07,1.67 -0.07,2.5l-0.93 0.34c-0.06,-1.14 -0.21,-2.97 -2.28,-2.97l-5.07 0 0 16.44c0,2.38 1.08,2.65 2.56,2.65l0.59 0 0 0.93c-1.2,0 -3.37,-0.12 -5.04,-0.12 -1.85,0 -4.02,0.12 -5.22,0.12l0 -0.93 0.59 0c1.7,0 2.57,-0.15 2.57,-2.59l0 -16.5 -5.07 0z"/>
   <path class="fil0" d="M159.81 184.87c-1.21,0 -3.38,-0.12 -5.04,-0.12 -1.85,0 -4.01,0.12 -5.22,0.12l-0.14 0 0 -1.2 0.72 0c1.7,-0.04 2.38,-0.06 2.43,-2.46l-0 -16.37 -4.93 0 0 -0.27 5.2 0 0 16.64c0,2.48 -1,2.72 -2.7,2.73l-0.46 0 0 0.66c1.22,-0.01 3.3,-0.13 5.09,-0.13 1.61,0 3.68,0.12 4.9,0.13l-0 -0.66 -0.45 0c-1.49,-0.01 -2.69,-0.36 -2.7,-2.79l0 -16.58 5.2 0c2.07,0.01 2.35,1.77 2.4,2.92l0.67 -0.25c0,-0.8 0,-1.61 0.06,-2.43 0.09,-0.79 0.2,-1.58 0.31,-2.37l-0.47 -0.08c-0.14,0.9 -1.01,0.95 -1.78,0.94l-16.11 0c-0.73,0.01 -1.52,-0.03 -1.8,-0.9l-0.51 0c-0.01,0.86 -0.07,1.69 -0.19,2.51 -0.08,0.85 -0.23,1.67 -0.35,2.48l0.67 0c0.4,-2.15 0.67,-2.85 2.99,-2.82l0 0.27c-2.29,0.04 -2.24,0.42 -2.75,2.71l-0.02 0.1 -1.19 0 0.02 -0.15c0.13,-0.87 0.28,-1.74 0.37,-2.63 0.13,-0.86 0.18,-1.72 0.18,-2.61l0 -0.14 0.98 0 0.03 0.1c0.21,0.78 0.78,0.78 1.57,0.8 0.06,0 0.1,0 0.16,0l15.95 0c0.85,-0.02 1.48,-0.03 1.53,-0.83l0.01 -0.15 0.15 0.03 0.88 0.14 -0.02 0.13c-0.13,0.83 -0.24,1.66 -0.34,2.49 -0.06,0.83 -0.06,1.66 -0.06,2.49l0 0.09 -0.09 0.04 -1.09 0.4 -0 -0.18c-0.08,-1.16 -0.2,-2.84 -2.16,-2.84l-4.93 0 0 16.31c0.03,2.33 0.96,2.49 2.43,2.52l0.72 0 0 1.2 -0.13 0z"/>
   <path class="fil0" d="M166.48 183.8l0.43 0c1.12,0 2.29,-0.15 2.29,-1.76l0 -16.19c0,-1.61 -1.17,-1.77 -2.29,-1.77l-0.43 0 0 -0.93c1.21,0 3.06,0.12 4.57,0.12 1.55,0 3.4,-0.12 4.86,-0.12l0 0.93 -0.43 0c-1.11,0 -2.29,0.15 -2.29,1.77l0 16.19c0,1.61 1.18,1.76 2.29,1.76l0.43 0 0 0.93c-1.48,0 -3.34,-0.12 -4.88,-0.12 -1.52,0 -3.34,0.12 -4.55,0.12l0 -0.93z"/>
   <path class="fil0" d="M175.77 184.6l0 -0.65 -0.29 0c-1.11,0 -2.42,-0.19 -2.42,-1.9l0 -16.19c0,-1.71 1.31,-1.9 2.42,-1.9l0.29 0 0 -0.66c-1.43,0.01 -3.21,0.12 -4.72,0.12 -1.47,0 -3.24,-0.11 -4.43,-0.12l0 0.66 0.29 0c1.1,0 2.42,0.19 2.42,1.9l0 16.19c-0.01,1.71 -1.32,1.9 -2.42,1.9l-0.29 0 0 0.65c1.19,-0.01 2.94,-0.12 4.41,-0.12 1.5,0 3.29,0.12 4.74,0.12zm0.14 0.27c-1.49,0 -3.34,-0.13 -4.89,-0.13 -1.51,0 -3.33,0.13 -4.54,0.13l-0.13 0 0 -1.2 0.56 0c1.12,-0.02 2.14,-0.12 2.15,-1.63l0 -16.19c-0.01,-1.51 -1.03,-1.61 -2.15,-1.63l-0.56 0 0 -1.19 0.13 0c1.21,0 3.06,0.12 4.57,0.12 1.54,0 3.39,-0.12 4.86,-0.12l0.13 0 0 1.19 -0.56 0c-1.13,0.02 -2.15,0.12 -2.16,1.63l0 16.19c0.01,1.51 1.03,1.61 2.16,1.63l0.56 0 0 1.2 -0.13 0z"/>
   <path class="fil0" d="M188.7 183.84c6,0 7.04,-5.29 7.04,-9.79 0,-4.52 -2.44,-9.99 -7.57,-9.99 -5.41,0 -7.01,4.82 -7.01,8.96 0,5.53 2.53,10.82 7.54,10.82zm-0.47 -21.14c6.59,0 11.84,4.08 11.84,10.66 0,7.11 -5.1,11.83 -11.68,11.83 -6.55,0 -11.56,-4.45 -11.56,-11.09 0,-6.43 4.97,-11.4 11.4,-11.4z"/>
   <path class="fil0" d="M181.03 173.02c0.01,-4.16 1.63,-9.09 7.15,-9.09 5.25,0.01 7.69,5.58 7.7,10.12 -0.01,4.5 -1.07,9.92 -7.18,9.92l0 -0.26c5.88,-0.01 6.89,-5.15 6.91,-9.66 0,-4.48 -2.41,-9.84 -7.44,-9.85 -5.3,0.01 -6.87,4.71 -6.88,8.82 0,5.5 2.51,10.67 7.41,10.68l0 0.26c-5.13,-0 -7.67,-5.39 -7.68,-10.95zm-4.33 1.09c0.01,-6.5 5.04,-11.53 11.54,-11.54l0 0.27c-6.35,0 -11.27,4.91 -11.27,11.27 0.01,6.57 4.94,10.95 11.43,10.96 6.52,-0 11.54,-4.66 11.55,-11.7 -0,-6.5 -5.18,-10.52 -11.71,-10.52l0 -0.27c6.63,0.01 11.96,4.13 11.97,10.79 -0.01,7.18 -5.17,11.96 -11.81,11.97 -6.61,-0.01 -11.68,-4.51 -11.7,-11.23z"/>
   <path class="fil0" d="M220.9 178.65l0.06 -0.06 0 -11.58c0,-2.54 -1.77,-2.91 -2.7,-2.91l-0.67 0 0 -0.93c1.45,0 2.87,0.12 4.32,0.12 1.27,0 2.54,-0.12 3.81,-0.12l0 0.93 -0.46 0c-1.3,0 -2.75,0.25 -2.75,3.93l0 14.06c0,1.08 0.03,2.16 0.19,3.12l-1.18 0 -15.92 -17.74 0 12.73c0,2.68 0.52,3.61 2.9,3.61l0.53 0 0 0.93c-1.33,0 -2.66,-0.12 -3.98,-0.12 -1.39,0 -2.82,0.12 -4.21,0.12l0 -0.93 0.44 0c2.13,0 2.78,-1.45 2.78,-3.92l0 -13.02c0,-1.73 -1.42,-2.78 -2.81,-2.78l-0.4 0 0 -0.93c1.18,0 2.38,0.12 3.55,0.12 0.93,0 1.82,-0.12 2.75,-0.12l13.75 15.48z"/>
   <path class="fil0" d="M220.82 178.58l0 -0.01 -0.02 -0.02 0.02 0.03zm0.07 0.06l0.1 -0.09 -0.1 0.09zm0.62 6.41l1.01 0c-0.13,-0.93 -0.16,-1.96 -0.16,-2.98l0 -14.06c0,-3.71 1.56,-4.05 2.88,-4.06l0.33 0 0 -0.66c-1.22,0.01 -2.44,0.12 -3.67,0.12 -1.41,0 -2.79,-0.11 -4.19,-0.12l0 0.66 0.54 0c0.95,0.01 2.82,0.43 2.82,3.04l-0.03 11.68 -0.06 0.07 -0.1 0.1 -13.75 -15.54c-0.91,0 -1.82,0.12 -2.75,0.12 -1.14,0 -2.3,-0.11 -3.42,-0.12l0 0.66 0.27 0c1.45,0.01 2.94,1.1 2.94,2.91l0 13.02c0,2.47 -0.69,4.05 -2.91,4.06l-0.31 -0.01 0 0.65c1.34,-0.01 2.72,-0.12 4.08,-0.12 1.29,0 2.57,0.12 3.85,0.12l0 -0.65 -0.4 0c-2.43,-0.01 -3.03,-1.07 -3.03,-3.75l0 -13.08 16.05 17.95zm1.17 0.27l-1.28 -0.05 -15.68 -17.48 0 12.39c0.04,2.68 0.45,3.44 2.77,3.47l0.67 0 0 1.2 -0.13 0c-1.34,0 -2.66,-0.12 -3.98,-0.12 -1.39,0 -2.81,0.12 -4.21,0.12l-0.13 0 0 -1.2 0.57 0c2.04,-0.01 2.62,-1.32 2.65,-3.78l0 -13.02c-0,-1.64 -1.35,-2.64 -2.68,-2.64l-0.53 0 0 -1.19 0.13 0c1.18,0 2.39,0.12 3.56,0.12 0.92,0 1.81,-0.12 2.86,-0.07l13.58 15.29 0 -11.37c-0.01,-2.46 -1.65,-2.76 -2.56,-2.78l-0.81 0 0 -1.19 0.14 0c1.45,0 2.88,0.12 4.32,0.12 1.27,0 2.53,-0.12 3.81,-0.12l0.13 0 0 1.19 -0.6 0c-1.27,0.04 -2.59,0.15 -2.61,3.79l0 14.06c0,1.08 0.02,2.15 0.17,3.1l0.03 0.15 -0.15 0z"/>
   <path class="fil0" d="M235.2 166.63l-0.06 0 -2.88 8.75 5.78 0 -2.84 -8.75zm-4.52 13.69c-0.3,1.05 -0.68,1.86 -0.68,2.41 0,0.93 1.3,1.08 2.32,1.08l0.34 0 0 0.93c-1.24,-0.07 -2.51,-0.12 -3.74,-0.12 -1.11,0 -2.22,0.06 -3.33,0.12l0 -0.93 0.18 0c1.21,0 2.23,-0.71 2.69,-2.01l4.95 -14.18c0.4,-1.15 0.96,-2.69 1.14,-3.84 0.99,-0.34 2.23,-0.95 2.82,-1.33 0.09,-0.03 0.15,-0.06 0.24,-0.06 0.09,0 0.15,0 0.21,0.1 0.09,0.25 0.19,0.53 0.28,0.77l5.68 16.16c0.37,1.08 0.74,2.22 1.15,3.15 0.37,0.87 1.02,1.23 2.04,1.23l0.19 0 0 0.93c-1.39,-0.07 -2.78,-0.12 -4.27,-0.12 -1.51,0 -3.06,0.06 -4.63,0.12l0 -0.93 0.34 0c0.71,0 1.92,-0.12 1.92,-0.89 0,-0.4 -0.28,-1.24 -0.62,-2.23l-1.2 -3.58 -7.02 0 -0.99 3.21z"/>
   <path class="fil0" d="M235.07 166.67l0.06 -0.02 -0.06 0.02zm-2.62 8.57l5.41 0 -2.69 -8.28 -2.71 8.28zm-0.37 0.26l2.96 -9.01 0.16 0 0 0.14 -0.03 0.01 0.03 -0.01 0 -0.14 0.1 0 2.92 9.01 -6.14 0zm6.31 9.09c1.53,-0.06 3.03,-0.12 4.5,-0.12 1.44,0 2.79,0.06 4.13,0.12l-0 -0.65 -0.05 0c-1.05,0.01 -1.78,-0.41 -2.16,-1.32 -0.41,-0.94 -0.78,-2.08 -1.14,-3.16l-5.69 -16.16c-0.09,-0.24 -0.19,-0.53 -0.26,-0.74 -0.02,-0.04 -0.02,-0.04 -0.04,-0.04l-0.06 0c-0.07,0 -0.1,0.02 -0.17,0.04 -0.6,0.38 -1.84,1 -2.75,1.24 -0.19,1.17 -0.75,2.71 -1.15,3.86l-4.95 14.18c-0.47,1.34 -1.55,2.11 -2.81,2.1l-0.05 0 0 0.65c1.06,-0.06 2.13,-0.12 3.2,-0.12 1.2,0 2.42,0.06 3.61,0.12l0 -0.65 -0.21 0c-1,-0.01 -2.41,-0.12 -2.45,-1.22 0.01,-0.61 0.39,-1.4 0.69,-2.45l0.13 0.04 -0.13 -0.04 1.02 -3.3 7.21 0 1.24 3.67c0.34,1 0.62,1.82 0.62,2.27 -0.05,0.95 -1.34,1.02 -2.05,1.03l-0.21 0 0 0.65zm8.76 0.27c-1.39,-0.06 -2.78,-0.12 -4.26,-0.12 -1.5,0 -3.05,0.07 -4.63,0.12l-0.14 0.01 0 -1.2 0.47 0c0.72,0 1.78,-0.17 1.79,-0.76 0.01,-0.35 -0.27,-1.2 -0.62,-2.18l-1.17 -3.5 -6.82 0 -0.95 3.12c-0.31,1.06 -0.68,1.87 -0.67,2.37 0,0.76 1.16,0.95 2.18,0.95l0.47 0 0 1.2 -0.14 -0.01c-1.24,-0.06 -2.5,-0.12 -3.73,-0.12 -1.11,0 -2.22,0.07 -3.33,0.12l-0.13 0.01 0 -1.2 0.31 0c1.15,-0.01 2.12,-0.67 2.57,-1.92l4.95 -14.19c0.4,-1.14 0.95,-2.68 1.23,-3.91 0.97,-0.34 2.21,-0.95 2.81,-1.33 0.08,-0.03 0.17,-0.07 0.29,-0.07 0.08,-0.01 0.24,0.01 0.34,0.18 0.09,0.24 0.18,0.52 0.29,0.77l5.68 16.16c0.37,1.08 0.74,2.23 1.14,3.14 0.36,0.82 0.93,1.14 1.91,1.15l0.32 0 0 1.2 -0.14 -0.01z"/>
   <path class="fil0" d="M254.95 181.7c0,1.24 0.86,1.61 1.85,1.73 1.27,0.09 2.66,0.09 4.08,-0.06 1.3,-0.15 2.41,-0.89 2.96,-1.67 0.5,-0.68 0.77,-1.54 0.96,-2.22l0.9 0c-0.34,1.76 -0.78,3.5 -1.15,5.25 -2.71,0 -5.44,-0.12 -8.15,-0.12 -2.73,0 -5.44,0.12 -8.16,0.12l0 -0.93 0.42 0c1.12,0 2.32,-0.15 2.32,-2.07l0 -15.88c0,-1.61 -1.21,-1.77 -2.32,-1.77l-0.42 0 0 -0.93c1.63,0 3.24,0.12 4.88,0.12 1.58,0 3.12,-0.12 4.7,-0.12l0 0.93 -0.78 0c-1.17,0 -2.1,0.03 -2.1,1.67l0 15.95z"/>
   <path class="fil0" d="M264.44 184.6c0.36,-1.68 0.76,-3.31 1.09,-4.98l-0.63 0c-0.19,0.67 -0.47,1.5 -0.95,2.18 -0.58,0.8 -1.72,1.56 -3.06,1.72 -0.81,0.08 -1.61,0.13 -2.37,0.13 -0.6,0 -1.18,-0.03 -1.74,-0.07 -1.01,-0.11 -1.98,-0.54 -1.98,-1.86l0 -15.95c0,-1.72 1.09,-1.8 2.24,-1.8l0.64 0 0 -0.66c-1.52,0.01 -3.02,0.12 -4.56,0.12 -1.6,0 -3.17,-0.12 -4.75,-0.12l0 0.66 0.29 0c1.1,0 2.45,0.19 2.45,1.9l0 15.88c0,2 -1.34,2.21 -2.45,2.21l-0.29 0 0 0.65c2.67,-0 5.34,-0.12 8.03,-0.12 2.69,0 5.37,0.12 8.04,0.12zm0.11 0.27c-2.72,0 -5.44,-0.12 -8.16,-0.12 -2.72,0 -5.44,0.12 -8.17,0.12l-0.13 0 0 -1.2 0.56 0c1.12,-0.02 2.18,-0.1 2.19,-1.94l0 -15.88c-0.01,-1.5 -1.07,-1.61 -2.19,-1.63l-0.56 0 0 -1.19 0.13 0c1.65,0 3.25,0.12 4.89,0.12 1.57,0 3.11,-0.12 4.7,-0.12l0.13 0 0 1.19 -0.9 0c-1.19,0.03 -1.94,-0.02 -1.97,1.53l0 15.95c0.01,1.15 0.76,1.46 1.73,1.6 0.54,0.04 1.12,0.06 1.71,0.06 0.76,0 1.54,-0.04 2.34,-0.12 1.26,-0.15 2.34,-0.87 2.88,-1.61 0.47,-0.66 0.75,-1.51 0.93,-2.18l0.03 -0.1 1.16 0 -0.03 0.16c-0.35,1.77 -0.77,3.49 -1.15,5.25l-0.03 0.1 -0.1 0z"/>
   <path class="fil0" d="M264.8 165.55l0.39 0c0.42,0 0.62,-0.32 0.62,-0.83 0,-0.52 -0.3,-0.7 -0.64,-0.7l-0.36 0 0 1.53zm-1.1 1.72l0 -0.16c0.4,-0.06 0.47,-0.04 0.47,-0.29l0 -2.41c0,-0.34 -0.04,-0.45 -0.46,-0.43l0 -0.16 1.67 0c0.57,0 1.1,0.27 1.1,0.86 0,0.48 -0.32,0.84 -0.77,0.98l0.53 0.75c0.25,0.34 0.53,0.65 0.72,0.77l0 0.11 -0.64 0c-0.3,0 -0.57,-0.64 -1.17,-1.5l-0.36 0 0 1.08c0,0.21 0.08,0.2 0.48,0.26l0 0.16 -1.57 0zm1.62 0.92c1.46,0 2.57,-1.24 2.57,-2.64 0,-1.4 -1.1,-2.65 -2.57,-2.65 -1.46,0 -2.58,1.25 -2.58,2.65 0,1.4 1.12,2.64 2.58,2.64zm0 -5.9c1.86,0 3.25,1.43 3.25,3.26 0,1.83 -1.39,3.25 -3.25,3.25 -1.86,0 -3.26,-1.42 -3.26,-3.25 0,-1.83 1.4,-3.26 3.26,-3.26z"/>
  </g>
 </g>
</svg>
