<?xml version="1.0" encoding="UTF-8"?>
<!DOCTYPE svg PUBLIC "-//W3C//DTD SVG 1.1//EN" "http://www.w3.org/Graphics/SVG/1.1/DTD/svg11.dtd">
<!-- Creator: CorelDRAW 2019 (64 Bit) -->
<svg xmlns="http://www.w3.org/2000/svg" xml:space="preserve" width="14.1833mm" height="7.15mm" version="1.1" style="shape-rendering:geometricPrecision; text-rendering:geometricPrecision; image-rendering:optimizeQuality; fill-rule:evenodd; clip-rule:evenodd"
viewBox="0 0 112.79 56.86"
 xmlns:xlink="http://www.w3.org/1999/xlink">
 <defs>
  <style type="text/css">
   <![CDATA[
    .fil2 {fill:#FAEE35}
    .fil3 {fill:#E04238}
    .fil1 {fill:#23A0D7}
    .fil0 {fill:#060608}
   ]]>
  </style>
 </defs>
 <g id="Camada_x0020_1">
  <metadata id="CorelCorpID_0Corel-Layer"/>
  <g id="_1661108744080">
   <path class="fil0" d="M33.51 24.5l-23.42 10.09c-0.04,-0.4 -0.06,-0.81 -0.06,-1.23 0,-7.41 6.01,-13.42 13.42,-13.42 4.01,0 7.61,1.76 10.06,4.55l0 0zm-10.06 -14.58c11.05,0 20.32,7.65 22.8,17.94l-9.45 4.13 -0 -0.02 -9.67 4.25 -23.19 10.14c-2.48,-3.72 -3.93,-8.19 -3.93,-12.99 0,-12.95 10.5,-23.45 23.45,-23.45l0 0z"/>
   <path class="fil0" d="M39.83 50.15c-8.4,7.97 -19.5,8.75 -29.26,2.83l5.51 -8.38c5.55,3.32 11.13,2.78 16.74,-1.62l7.01 7.18 0 0z"/>
   <path class="fil0" d="M49.38 44.34l-0.06 -44.34 8.4 0 0 43.15c0,0.41 0.05,0.78 0.59,0.99l7.31 2.84 -3.29 8.56 -8.56 -3.62c-3.25,-1.37 -4.38,-3.36 -4.39,-7.57l0 0z"/>
   <path class="fil1" d="M81.01 43.6c-3.15,-2.45 -5.18,-6.27 -5.18,-10.57 0,-3.82 1.6,-7.27 4.17,-9.7l-5.43 -8.79c-5.45,4.32 -8.96,11 -8.96,18.5 0,8.08 4.07,15.21 10.26,19.47l5.12 -8.9z"/>
   <path class="fil2" d="M84.69 20.43c1.41,-0.51 2.94,-0.79 4.53,-0.79 5.73,0 10.62,3.6 12.52,8.66l10.4 -0.87c-2.51,-10.33 -11.82,-18.01 -22.92,-18.01 -3.14,0 -6.13,0.62 -8.87,1.73l4.34 9.27z"/>
   <path class="fil3" d="M102.58 33.68c-0.34,7.09 -6.19,12.73 -13.37,12.73 -1.12,0 -2.22,-0.14 -3.26,-0.4l-4.08 9.44c2.31,0.75 4.77,1.17 7.34,1.17 12.71,0 23.06,-10.04 23.57,-22.62l-10.2 -0.32z"/>
  </g>
 </g>
</svg>
