<?xml version="1.0" encoding="UTF-8"?>
<!DOCTYPE svg PUBLIC "-//W3C//DTD SVG 1.1//EN" "http://www.w3.org/Graphics/SVG/1.1/DTD/svg11.dtd">
<!-- Creator: CorelDRAW 2019 (64 Bit) -->
<svg xmlns="http://www.w3.org/2000/svg" xml:space="preserve" width="14.5578mm" height="11.6976mm" version="1.1" style="shape-rendering:geometricPrecision; text-rendering:geometricPrecision; image-rendering:optimizeQuality; fill-rule:evenodd; clip-rule:evenodd"
viewBox="0 0 239.63 192.55"
 xmlns:xlink="http://www.w3.org/1999/xlink">
 <defs>
  <style type="text/css">
   <![CDATA[
    .fil3 {fill:#FEFEFE}
    .fil0 {fill:#F77518}
    .fil1 {fill:#FEFEFE;fill-rule:nonzero}
    .fil2 {fill:#FFF212;fill-rule:nonzero}
   ]]>
  </style>
 </defs>
 <g id="Camada_x0020_1">
  <metadata id="CorelCorpID_0Corel-Layer"/>
  <g id="_1661269280992">
   <path class="fil0" d="M28.48 32.1l134.97 -31.16c19.69,-4.55 39.53,7.85 44.07,27.54l31.16 134.97c2.4,10.42 0.07,20.88 -5.59,29.1l-205.29 0 -26.87 -116.37c-4.55,-19.69 7.85,-39.53 27.54,-44.07z"/>
   <polygon class="fil1" points="72.07,145.18 60.94,145.18 60.94,120.94 38.26,120.94 38.26,145.18 27.13,145.18 27.13,89.2 38.26,89.2 38.26,111.06 60.94,111.06 60.94,89.2 72.07,89.2 "/>
   <path class="fil2" d="M94.11 91.31c0,0.92 -0.17,1.78 -0.55,2.59 -0.36,0.81 -0.85,1.51 -1.47,2.12 -0.62,0.6 -1.35,1.08 -2.2,1.43 -0.83,0.36 -1.73,0.53 -2.65,0.53 -0.91,0 -1.76,-0.17 -2.56,-0.53 -0.79,-0.35 -1.5,-0.82 -2.1,-1.43 -0.6,-0.6 -1.08,-1.31 -1.44,-2.12 -0.35,-0.8 -0.52,-1.67 -0.52,-2.59 0,-0.93 0.17,-1.8 0.52,-2.62 0.36,-0.8 0.83,-1.52 1.44,-2.13 0.6,-0.6 1.31,-1.08 2.1,-1.42 0.8,-0.36 1.65,-0.53 2.56,-0.53 0.92,0 1.81,0.17 2.65,0.53 0.85,0.35 1.58,0.82 2.2,1.42 0.62,0.61 1.11,1.33 1.47,2.13 0.37,0.82 0.55,1.68 0.55,2.62z"/>
   <path class="fil3" d="M103.21 158.75l0 -12.94 -0.56 0c-2.89,0 -5.58,-0.48 -8.09,-1.44 -0.61,-0.23 -1.2,-0.49 -1.77,-0.78 -6.65,-3.42 -9.99,-10.41 -10.7,-20.26l0 -0.13 0 -18.51 10.7 0c0,5.22 0.31,14.13 0,21.09 0,1.6 0.49,3.79 1.05,5.28 0.56,1.48 1.31,2.7 2.23,3.65 0.93,0.96 2.03,1.67 3.29,2.13 1.16,0.44 2.44,0.67 3.84,0.7l0 -32.85 6.58 0c0.67,0 1.26,0.15 1.71,0.46 0.46,0.31 0.75,0.8 0.91,1.44l0.89 3.67c0.83,-0.93 1.73,-1.8 2.65,-2.58 0.93,-0.79 1.93,-1.46 3.02,-2.03 1.08,-0.56 2.24,-1 3.5,-1.31 1.25,-0.31 2.6,-0.46 4.06,-0.46 2.23,0 4.26,0.48 6.12,1.44 1.85,0.95 3.46,2.33 4.8,4.14 3.79,5.11 4.26,7.98 4.26,14.46 0,3.12 -0.42,6.01 -1.27,8.69 -0.83,2.66 -2.03,4.98 -3.58,6.93 -1.54,1.96 -3.41,3.48 -5.58,4.59 -2.17,1.11 -4.62,1.67 -7.31,1.67 -2.27,0 -4.2,-0.35 -5.78,-1.04 -1.57,-0.69 -2.99,-1.62 -4.26,-2.8l0 16.78 -10.7 0zm19.65 -47.75c-2,0 -3.68,0.4 -5.06,1.2 -1.38,0.8 -2.68,1.97 -3.88,3.48l0 18.55c1.08,1.29 2.23,2.2 3.48,2.72 1.25,0.52 2.59,0.78 4.03,0.78 1.38,0 2.63,-0.27 3.77,-0.82 1.14,-0.55 2.12,-1.38 2.93,-2.5 0.8,-1.12 1.44,-2.55 1.87,-4.27 0.43,-1.74 0.66,-3.8 0.66,-6.19 0,-2.36 -0.19,-4.36 -0.55,-6 -0.37,-1.64 -0.89,-2.98 -1.57,-4 -0.67,-1.04 -1.48,-1.77 -2.44,-2.24 -0.95,-0.46 -2.03,-0.69 -3.24,-0.69z"/>
   <path class="fil1" d="M167.08 104.02c2.65,0 5.08,0.43 7.3,1.28 2.22,0.86 4.13,2.11 5.72,3.71 1.61,1.61 2.86,2.25 3.76,4.6 0.9,2.36 1.35,5.05 1.35,8.09 0,0.82 -0.04,1.48 -0.13,2 -0.09,0.52 -0.22,0.94 -0.4,1.25 -0.17,0.3 -0.43,0.52 -0.75,0.65 -0.33,0.13 -0.73,0.19 -1.21,0.19l-25.03 0c0.17,2.03 0.53,3.78 1.09,5.28 0.56,1.48 1.31,2.7 2.23,3.65 0.93,0.96 2.03,1.67 3.29,2.13 1.27,0.48 2.66,0.71 4.22,0.71 1.54,0 2.88,-0.19 4.01,-0.58 1.15,-0.37 2.14,-0.79 3.01,-1.22 0.85,-0.43 1.61,-0.83 2.29,-1.22 0.68,-0.37 1.34,-0.56 1.99,-0.56 0.79,0 1.42,0.32 1.94,0.96l3.08 3.96c-1.17,1.35 -2.43,2.48 -3.84,3.35 -1.41,0.89 -2.86,1.6 -4.36,2.12 -1.51,0.52 -3.04,0.89 -4.58,1.12 -1.55,0.22 -3.04,0.33 -4.47,0.33 -19.17,0 -24.65,-22.05 -15.19,-35.71 1.45,-2.09 3.83,-3.35 6.3,-4.45 2.47,-1.09 5.27,-1.64 8.39,-1.64zm0.22 6.26c-2.73,0 -4.86,0.79 -6.42,2.39 -1.54,1.58 -2.53,3.83 -2.99,6.72l17.71 0c0,-1.21 -0.16,-2.36 -0.49,-3.45 -0.32,-1.09 -0.82,-2.07 -1.51,-2.91 -0.69,-0.85 -1.56,-1.51 -2.59,-2.01 -1.05,-0.49 -2.29,-0.73 -3.71,-0.73z"/>
   <path class="fil1" d="M192.46 145.18l0 -40.48 6.29 0c1.09,0 1.86,0.21 2.29,0.59 0.44,0.39 0.75,1.08 0.88,2.06l0.55 4.26c1.27,-2.39 2.74,-4.27 4.42,-5.64 1.68,-1.37 3.64,-2.07 5.85,-2.07 1.83,0 3.34,0.43 4.52,1.31l-0.8 6.65c-0.06,0.5 -0.23,0.86 -0.5,1.06 -0.28,0.2 -0.66,0.32 -1.14,0.32 -0.42,0 -1.02,-0.06 -1.81,-0.19 -0.79,-0.13 -1.51,-0.19 -2.19,-0.19 -0.99,0 -1.87,0.14 -2.63,0.42 -0.78,0.29 -1.47,0.71 -2.07,1.25 -0.6,0.55 -1.15,1.21 -1.63,2 -0.47,0.78 -0.91,1.68 -1.31,2.69l0 25.97 -10.7 0z"/>
  </g>
 </g>
</svg>
