<?xml version="1.0" encoding="UTF-8"?>
<!DOCTYPE svg PUBLIC "-//W3C//DTD SVG 1.1//EN" "http://www.w3.org/Graphics/SVG/1.1/DTD/svg11.dtd">
<!-- Creator: CorelDRAW 2019 (64 Bit) -->
<svg xmlns="http://www.w3.org/2000/svg" xml:space="preserve" width="15.072mm" height="11.712mm" version="1.1" style="shape-rendering:geometricPrecision; text-rendering:geometricPrecision; image-rendering:optimizeQuality; fill-rule:evenodd; clip-rule:evenodd"
viewBox="0 0 169.86 131.99"
 xmlns:xlink="http://www.w3.org/1999/xlink">
 <defs>
  <style type="text/css">
   <![CDATA[
    .fil1 {fill:#373435;fill-rule:nonzero}
    .fil4 {fill:#F9A233;fill-rule:nonzero}
    .fil3 {fill:#F27035;fill-rule:nonzero}
    .fil0 {fill:black;fill-rule:nonzero}
    .fil2 {fill:#D90004;fill-rule:nonzero}
    .fil5 {fill:#FA9005;fill-rule:nonzero}
   ]]>
  </style>
 </defs>
 <g id="Camada_x0020_1">
  <metadata id="CorelCorpID_0Corel-Layer"/>
  <g id="_1661109748704">
   <g>
    <path class="fil0" d="M29.1 118.48c-0.49,-0.49 -1.06,-0.87 -1.73,-1.14 -0.67,-0.27 -1.4,-0.41 -2.2,-0.41 -0.42,0 -0.86,0.04 -1.31,0.11 -0.45,0.07 -0.9,0.2 -1.33,0.38 -0.44,0.18 -0.85,0.44 -1.24,0.76 -0.39,0.32 -0.73,0.73 -1.02,1.23 -0.47,-0.77 -1.1,-1.38 -1.9,-1.82 -0.8,-0.44 -1.72,-0.66 -2.74,-0.66 -0.35,0 -0.7,0.03 -1.07,0.09 -0.37,0.06 -0.74,0.17 -1.1,0.33 -0.37,0.15 -0.71,0.37 -1.05,0.63 -0.33,0.26 -0.63,0.6 -0.9,1.01l0 -1.7 -2.92 0 0 13.89 2.95 0 0 -7.7c0,-0.59 0.09,-1.11 0.28,-1.57 0.19,-0.46 0.44,-0.84 0.75,-1.15 0.31,-0.31 0.68,-0.54 1.1,-0.7 0.42,-0.16 0.87,-0.24 1.35,-0.24 0.99,0 1.76,0.31 2.31,0.94 0.55,0.63 0.82,1.53 0.82,2.7l0 7.73 2.95 0 0 -7.7c0,-0.59 0.09,-1.11 0.28,-1.57 0.19,-0.46 0.44,-0.84 0.75,-1.15 0.31,-0.31 0.68,-0.54 1.1,-0.7 0.42,-0.16 0.87,-0.24 1.35,-0.24 0.99,0 1.76,0.31 2.31,0.94 0.55,0.63 0.82,1.53 0.82,2.7l0 7.73 2.95 0 0 -8.73c0,-0.81 -0.13,-1.56 -0.4,-2.23 -0.27,-0.68 -0.64,-1.26 -1.13,-1.75z"/>
    <path class="fil0" d="M44.65 118.98c-0.48,-0.62 -1.08,-1.11 -1.8,-1.49 -0.72,-0.37 -1.57,-0.56 -2.57,-0.56 -0.98,0 -1.89,0.18 -2.73,0.54 -0.84,0.36 -1.58,0.87 -2.2,1.52 -0.63,0.65 -1.12,1.42 -1.48,2.31 -0.36,0.89 -0.54,1.87 -0.54,2.94 0,1.06 0.18,2.04 0.54,2.94 0.36,0.89 0.85,1.67 1.48,2.31 0.63,0.65 1.36,1.15 2.2,1.52 0.84,0.36 1.75,0.54 2.73,0.54 1,0 1.85,-0.18 2.57,-0.55 0.71,-0.37 1.31,-0.86 1.8,-1.48l0 1.67 3.03 0 0 -13.89 -3.03 0 0 1.68zm-0.12 7.03l0 0c-0.2,0.54 -0.49,1.01 -0.86,1.41 -0.37,0.4 -0.81,0.71 -1.32,0.94 -0.51,0.23 -1.08,0.34 -1.71,0.34 -0.66,0 -1.25,-0.12 -1.76,-0.35 -0.52,-0.24 -0.95,-0.56 -1.31,-0.96 -0.36,-0.4 -0.63,-0.87 -0.83,-1.41 -0.19,-0.54 -0.29,-1.12 -0.29,-1.73 0,-0.61 0.1,-1.18 0.29,-1.73 0.19,-0.54 0.47,-1.01 0.83,-1.41 0.36,-0.4 0.79,-0.72 1.31,-0.96 0.52,-0.24 1.1,-0.35 1.76,-0.35 0.63,0 1.2,0.11 1.71,0.34 0.51,0.23 0.95,0.54 1.32,0.94 0.37,0.4 0.65,0.87 0.86,1.41 0.2,0.54 0.3,1.13 0.3,1.77 0,0.64 -0.1,1.23 -0.3,1.77z"/>
    <path class="fil0" d="M61.61 124.22c-0.85,-0.66 -2.04,-1.1 -3.55,-1.33l-1.44 -0.22c-0.32,-0.05 -0.62,-0.1 -0.9,-0.17 -0.28,-0.06 -0.52,-0.15 -0.72,-0.25 -0.2,-0.11 -0.37,-0.24 -0.49,-0.41 -0.12,-0.16 -0.18,-0.37 -0.18,-0.61 0,-0.49 0.23,-0.89 0.69,-1.2 0.46,-0.31 1.1,-0.46 1.94,-0.46 0.44,0 0.86,0.04 1.28,0.12 0.42,0.08 0.82,0.17 1.2,0.29 0.38,0.12 0.72,0.24 1.03,0.38 0.31,0.14 0.57,0.27 0.78,0.4l1.31 -2.36c-0.72,-0.46 -1.57,-0.82 -2.54,-1.08 -0.97,-0.26 -2,-0.38 -3.09,-0.38 -0.89,0 -1.69,0.1 -2.39,0.31 -0.71,0.21 -1.31,0.5 -1.81,0.88 -0.5,0.38 -0.88,0.85 -1.14,1.4 -0.27,0.55 -0.4,1.17 -0.4,1.86 0,1.12 0.4,2.03 1.2,2.72 0.8,0.69 1.97,1.14 3.52,1.36l1.45 0.19c0.83,0.12 1.44,0.3 1.83,0.56 0.39,0.26 0.58,0.58 0.58,0.98 0,0.52 -0.27,0.94 -0.8,1.24 -0.53,0.3 -1.32,0.46 -2.36,0.46 -0.57,0 -1.08,-0.04 -1.53,-0.11 -0.45,-0.08 -0.86,-0.18 -1.23,-0.31 -0.37,-0.13 -0.71,-0.28 -1,-0.45 -0.29,-0.17 -0.57,-0.35 -0.82,-0.54l-1.41 2.28c0.5,0.38 1.03,0.68 1.58,0.91 0.55,0.23 1.09,0.41 1.62,0.54 0.53,0.13 1.03,0.22 1.51,0.26 0.47,0.04 0.89,0.07 1.25,0.07 1,0 1.89,-0.11 2.68,-0.33 0.79,-0.22 1.45,-0.53 1.99,-0.94 0.54,-0.4 0.95,-0.88 1.23,-1.43 0.29,-0.56 0.43,-1.17 0.43,-1.83 0,-1.19 -0.42,-2.12 -1.28,-2.78z"/>
    <path class="fil0" d="M89.99 118.96c-0.57,-0.64 -1.27,-1.14 -2.07,-1.49 -0.81,-0.35 -1.69,-0.53 -2.66,-0.53 -1.02,0 -1.96,0.18 -2.81,0.53 -0.85,0.35 -1.57,0.85 -2.18,1.49 -0.61,0.64 -1.08,1.41 -1.42,2.31 -0.34,0.9 -0.51,1.89 -0.51,2.97 0,1.1 0.17,2.1 0.52,3 0.35,0.9 0.84,1.67 1.46,2.3 0.63,0.64 1.38,1.13 2.25,1.48 0.87,0.35 1.83,0.52 2.87,0.52 1.05,0 2.06,-0.14 3.01,-0.44 0.95,-0.29 1.85,-0.8 2.7,-1.52l-1.51 -2.16c-0.58,0.46 -1.22,0.82 -1.92,1.08 -0.7,0.26 -1.4,0.38 -2.1,0.38 -0.49,0 -0.97,-0.07 -1.42,-0.2 -0.46,-0.14 -0.87,-0.34 -1.23,-0.63 -0.37,-0.29 -0.68,-0.65 -0.94,-1.1 -0.26,-0.44 -0.44,-0.98 -0.54,-1.61l10.27 0c0.02,-0.17 0.03,-0.36 0.04,-0.55 0.01,-0.19 0.01,-0.39 0.01,-0.58 0,-1.08 -0.16,-2.07 -0.49,-2.97 -0.32,-0.89 -0.77,-1.66 -1.35,-2.31zm-8.48 4.1l0 0c0.08,-0.5 0.21,-0.96 0.41,-1.39 0.19,-0.42 0.44,-0.78 0.75,-1.09 0.31,-0.3 0.67,-0.54 1.09,-0.7 0.42,-0.16 0.9,-0.25 1.44,-0.25 0.97,0 1.75,0.3 2.36,0.9 0.61,0.6 1,1.44 1.16,2.52l-7.21 0z"/>
    <path class="fil0" d="M130.25 118.98c-0.48,-0.62 -1.08,-1.11 -1.8,-1.49 -0.72,-0.37 -1.57,-0.56 -2.57,-0.56 -0.98,0 -1.89,0.18 -2.73,0.54 -0.84,0.36 -1.58,0.87 -2.2,1.52 -0.63,0.65 -1.12,1.42 -1.48,2.31 -0.36,0.89 -0.54,1.87 -0.54,2.94 0,1.06 0.18,2.04 0.54,2.94 0.36,0.89 0.85,1.67 1.48,2.31 0.63,0.65 1.36,1.15 2.2,1.52 0.84,0.36 1.75,0.54 2.73,0.54 1,0 1.85,-0.18 2.57,-0.55 0.72,-0.37 1.32,-0.86 1.8,-1.48l0 1.67 3.03 0 0 -13.89 -3.03 0 0 1.68zm-0.12 7.03l0 0c-0.2,0.54 -0.49,1.01 -0.86,1.41 -0.37,0.4 -0.81,0.71 -1.32,0.94 -0.51,0.23 -1.08,0.34 -1.71,0.34 -0.66,0 -1.24,-0.12 -1.76,-0.35 -0.52,-0.24 -0.95,-0.56 -1.31,-0.96 -0.36,-0.4 -0.63,-0.87 -0.83,-1.41 -0.19,-0.54 -0.29,-1.12 -0.29,-1.73 0,-0.61 0.1,-1.18 0.29,-1.73 0.19,-0.54 0.47,-1.01 0.83,-1.41 0.36,-0.4 0.8,-0.72 1.31,-0.96 0.52,-0.24 1.1,-0.35 1.76,-0.35 0.63,0 1.2,0.11 1.71,0.34 0.51,0.23 0.95,0.54 1.32,0.94 0.37,0.4 0.65,0.87 0.86,1.41 0.2,0.54 0.3,1.13 0.3,1.77 0,0.64 -0.1,1.23 -0.3,1.77z"/>
    <path class="fil0" d="M74.6 128.42c-0.49,0.18 -0.97,0.27 -1.44,0.27 -0.31,0 -0.6,-0.05 -0.86,-0.14 -0.27,-0.1 -0.5,-0.25 -0.7,-0.46 -0.2,-0.21 -0.35,-0.48 -0.47,-0.8 -0.12,-0.33 -0.17,-0.72 -0.17,-1.19l0 -6.05 4.87 0 0 -2.76 -4.87 0 0 -4.2 -3.05 0 0 4.2 -2.77 0 0 2.76 2.77 0 0 6.1c0,1.85 0.44,3.21 1.31,4.08 0.87,0.87 2.1,1.31 3.68,1.31 0.88,0 1.67,-0.14 2.37,-0.41 0.46,-0.18 0.89,-0.38 1.29,-0.61l-1.04 -2.54c-0.29,0.16 -0.6,0.3 -0.93,0.42z"/>
    <path class="fil0" d="M101.97 116.93c-0.85,0 -1.62,0.16 -2.31,0.46 -0.69,0.31 -1.26,1.05 -1.73,1.72l0 -1.82 -2.75 0 0 13.89 2.78 0 0 -7.64c0,-0.59 0.08,-1.12 0.25,-1.58 0.16,-0.46 0.39,-0.86 0.68,-1.18 0.29,-0.32 0.64,-0.56 1.04,-0.72 0.41,-0.16 0.85,-0.25 1.33,-0.25 0.37,0 0.76,0.04 1.19,0.13 0.22,0.04 0.42,0.1 0.61,0.16l0.9 -2.9c-0.24,-0.08 -0.49,-0.14 -0.74,-0.19 -0.37,-0.06 -0.79,-0.09 -1.25,-0.09z"/>
    <path class="fil0" d="M144.1 116.93c-0.85,0 -1.62,0.16 -2.31,0.46 -0.69,0.31 -1.26,1.05 -1.73,1.72l0 -1.82 -2.75 0 0 13.89 2.78 0 0 -7.64c0,-0.59 0.08,-1.12 0.25,-1.58 0.16,-0.46 0.39,-0.86 0.68,-1.18 0.29,-0.32 0.64,-0.56 1.04,-0.72 0.41,-0.16 0.85,-0.25 1.33,-0.25 0.37,0 0.76,0.04 1.19,0.13 0.22,0.04 0.42,0.1 0.61,0.16l0.9 -2.9c-0.24,-0.08 -0.49,-0.14 -0.74,-0.19 -0.37,-0.06 -0.79,-0.09 -1.26,-0.09z"/>
    <path class="fil0" d="M158.26 111.65l0 7.33c-0.48,-0.62 -1.08,-1.11 -1.8,-1.49 -0.72,-0.37 -1.57,-0.56 -2.57,-0.56 -0.98,0 -1.89,0.18 -2.73,0.54 -0.84,0.36 -1.58,0.87 -2.2,1.52 -0.63,0.65 -1.12,1.42 -1.48,2.31 -0.36,0.89 -0.54,1.87 -0.54,2.94 0,1.06 0.18,2.04 0.54,2.94 0.36,0.89 0.85,1.67 1.48,2.31 0.63,0.65 1.36,1.15 2.2,1.52 0.84,0.36 1.75,0.54 2.73,0.54 1,0 1.85,-0.18 2.57,-0.55 0.72,-0.37 1.32,-0.86 1.8,-1.48l0 1.67 3.03 0 0 -19.54 -3.03 0zm-0.12 14.36l0 0c-0.2,0.54 -0.49,1.01 -0.86,1.41 -0.37,0.4 -0.81,0.71 -1.32,0.94 -0.51,0.23 -1.08,0.34 -1.71,0.34 -0.66,0 -1.24,-0.12 -1.76,-0.35 -0.52,-0.24 -0.95,-0.56 -1.31,-0.96 -0.36,-0.4 -0.63,-0.87 -0.83,-1.41 -0.19,-0.54 -0.29,-1.12 -0.29,-1.73 0,-0.61 0.1,-1.18 0.29,-1.73 0.19,-0.54 0.47,-1.01 0.83,-1.41 0.36,-0.4 0.8,-0.72 1.31,-0.96 0.52,-0.24 1.1,-0.35 1.76,-0.35 0.63,0 1.2,0.11 1.71,0.34 0.51,0.23 0.95,0.54 1.32,0.94 0.37,0.4 0.65,0.87 0.86,1.41 0.2,0.54 0.3,1.13 0.3,1.77 0,0.64 -0.1,1.23 -0.3,1.77z"/>
    <path class="fil0" d="M109.22 121.03c0.39,-0.39 0.85,-0.7 1.38,-0.91 0.53,-0.22 1.11,-0.33 1.73,-0.33 0.68,0 1.31,0.11 1.9,0.33 0.56,0.21 1.05,0.5 1.47,0.88l1.46 -2.43c-0.55,-0.44 -1.16,-0.79 -1.85,-1.07 -0.91,-0.37 -1.91,-0.56 -2.98,-0.56 -1.07,0 -2.07,0.19 -2.98,0.56 -0.91,0.37 -1.7,0.88 -2.36,1.54 -0.66,0.65 -1.18,1.42 -1.56,2.31 -0.38,0.89 -0.57,1.86 -0.57,2.9 0,1.04 0.19,2.01 0.57,2.9 0.38,0.89 0.9,1.66 1.56,2.31 0.66,0.65 1.45,1.17 2.36,1.54 0.91,0.37 1.91,0.56 2.98,0.56 1.07,0 2.07,-0.19 2.98,-0.56 0.69,-0.28 1.3,-0.64 1.85,-1.08l-1.46 -2.43c-0.42,0.37 -0.91,0.67 -1.47,0.88 -0.59,0.22 -1.22,0.33 -1.9,0.33 -0.62,0 -1.19,-0.11 -1.73,-0.33 -0.53,-0.22 -0.99,-0.52 -1.38,-0.91 -0.39,-0.39 -0.69,-0.86 -0.91,-1.41 -0.22,-0.55 -0.33,-1.15 -0.33,-1.81 0,-0.66 0.11,-1.26 0.33,-1.81 0.22,-0.55 0.53,-1.02 0.91,-1.41z"/>
   </g>
   <g>
    <path class="fil1" d="M167.67 129.15c0.2,0 0.39,0.04 0.57,0.11 0.18,0.07 0.33,0.18 0.46,0.3 0.13,0.13 0.23,0.28 0.31,0.45 0.08,0.17 0.11,0.35 0.11,0.55 0,0.19 -0.04,0.38 -0.11,0.55 -0.08,0.17 -0.18,0.32 -0.31,0.45 -0.13,0.13 -0.29,0.23 -0.46,0.31 -0.18,0.07 -0.37,0.11 -0.57,0.11 -0.21,0 -0.4,-0.04 -0.58,-0.11 -0.18,-0.08 -0.33,-0.18 -0.47,-0.31 -0.13,-0.13 -0.23,-0.28 -0.31,-0.45 -0.07,-0.17 -0.11,-0.35 -0.11,-0.55 0,-0.19 0.04,-0.38 0.11,-0.55 0.08,-0.17 0.18,-0.32 0.31,-0.45 0.13,-0.13 0.29,-0.23 0.47,-0.3 0.18,-0.07 0.37,-0.11 0.58,-0.11zm0 2.44l0 0c0.14,0 0.27,-0.03 0.4,-0.08 0.12,-0.05 0.23,-0.13 0.32,-0.22 0.09,-0.09 0.16,-0.2 0.22,-0.32 0.05,-0.12 0.08,-0.26 0.08,-0.4 0,-0.14 -0.03,-0.27 -0.08,-0.4 -0.05,-0.13 -0.12,-0.23 -0.22,-0.32 -0.09,-0.09 -0.2,-0.16 -0.32,-0.22 -0.13,-0.05 -0.26,-0.08 -0.4,-0.08 -0.15,0 -0.28,0.03 -0.41,0.08 -0.13,0.05 -0.23,0.13 -0.33,0.22 -0.09,0.09 -0.17,0.2 -0.22,0.32 -0.05,0.13 -0.08,0.26 -0.08,0.4 0,0.14 0.03,0.28 0.08,0.4 0.05,0.12 0.13,0.23 0.22,0.32 0.09,0.09 0.2,0.17 0.33,0.22 0.13,0.05 0.26,0.08 0.41,0.08zm0.08 -1.65l0 0c0.17,0 0.3,0.04 0.39,0.12 0.09,0.08 0.13,0.18 0.13,0.31 0,0.1 -0.03,0.18 -0.1,0.25 -0.06,0.07 -0.16,0.11 -0.28,0.13l0.39 0.45 -0.42 0 -0.35 -0.44 -0.04 0 0 0.44 -0.35 0 0 -1.26 0.63 0zm-0.27 0.31l0 0 0 0.23 0.26 0c0.06,0 0.1,-0.01 0.13,-0.02 0.03,-0.02 0.04,-0.05 0.04,-0.09 0,-0.04 -0.01,-0.07 -0.04,-0.09 -0.03,-0.02 -0.07,-0.03 -0.13,-0.03l-0.26 0z"/>
   </g>
   <path class="fil2" d="M64.95 52.36c0,-16.64 7.77,-31.46 19.88,-41.05 -8.93,-7.07 -20.2,-11.31 -32.48,-11.31 -28.92,0 -52.36,23.44 -52.36,52.36 0,28.92 23.44,52.36 52.36,52.36 12.27,0 23.55,-4.23 32.48,-11.31 -12.11,-9.59 -19.88,-24.41 -19.88,-41.05z"/>
   <path class="fil3" d="M64.95 52.36c0,16.64 7.77,31.46 19.88,41.05 12.11,-9.59 19.88,-24.41 19.88,-41.05 0,-16.64 -7.77,-31.46 -19.88,-41.05 -12.11,9.59 -19.88,24.41 -19.88,41.05z"/>
   <path class="fil4" d="M166.12 80.68l0 -1.53 -0.62 0 0 -0.42 1.7 0 0 0.42 -0.62 0 0 1.53 -0.46 0zm3.28 0l0 0 0 -1.36 -0.44 1.17 -0.49 0 -0.44 -1.17 0 1.35 -0.46 0 0 -1.95 0.66 0 0.49 1.25 0.48 -1.25 0.66 0 0 1.95 -0.46 0z"/>
   <path class="fil5" d="M117.31 0c-12.27,0 -23.55,4.23 -32.48,11.31 12.11,9.59 19.88,24.41 19.88,41.05 0,16.64 -7.77,31.46 -19.88,41.05 8.93,7.07 20.2,11.31 32.48,11.31 28.92,0 52.36,-23.44 52.36,-52.36 0,-28.92 -23.44,-52.36 -52.36,-52.36z"/>
  </g>
 </g>
</svg>
