<?xml version="1.0" encoding="UTF-8"?>
<!DOCTYPE svg PUBLIC "-//W3C//DTD SVG 1.1//EN" "http://www.w3.org/Graphics/SVG/1.1/DTD/svg11.dtd">
<!-- Creator: CorelDRAW 2019 (64 Bit) -->
<svg xmlns="http://www.w3.org/2000/svg" xml:space="preserve" width="17.1495mm" height="5.5637mm" version="1.1" style="shape-rendering:geometricPrecision; text-rendering:geometricPrecision; image-rendering:optimizeQuality; fill-rule:evenodd; clip-rule:evenodd"
viewBox="0 0 160.18 51.97"
 xmlns:xlink="http://www.w3.org/1999/xlink">
 <defs>
  <style type="text/css">
   <![CDATA[
    .fil0 {fill:#0062A3;fill-rule:nonzero}
    .fil1 {fill:#F79318;fill-rule:nonzero}
   ]]>
  </style>
 </defs>
 <g id="Camada_x0020_1">
  <metadata id="CorelCorpID_0Corel-Layer"/>
  <g id="_1661259351392">
   <polygon class="fil0" points="69.44,51.1 56.37,51.1 64.54,0.9 77.61,0.9 "/>
   <path class="fil0" d="M45.37 0.9l-12.46 34.53 -1.47 -7.44 0 0 -4.4 -22.57c0,0 -0.53,-4.52 -6.2,-4.52l-20.6 0 -0.24 0.85c0,0 6.3,1.31 13.67,5.74l11.36 43.61 13.62 0 20.8 -50.2 -14.07 0z"/>
   <path class="fil0" d="M133.79 33.34l6.87 -18.79 3.86 18.79 -10.73 0zm14.38 17.76l12 0 -10.46 -50.2 -10.51 0c-4.85,0 -6.03,3.74 -6.03,3.74l-19.49 46.46 13.62 0 2.73 -7.46 16.62 0 1.53 7.46z"/>
   <path class="fil0" d="M114.7 12.97l1.87 -10.78c0,0 -5.76,-2.19 -11.76,-2.19 -6.49,0 -21.89,2.84 -21.89,16.62 0,12.97 18.08,13.13 18.08,19.94 0,6.81 -16.21,5.59 -21.56,1.3l-1.95 11.27c0,0 5.84,2.84 14.75,2.84 8.92,0 22.38,-4.62 22.38,-17.19 0,-13.05 -18.24,-14.27 -18.24,-19.94 0,-5.68 12.73,-4.95 18.32,-1.86z"/>
   <path class="fil1" d="M31.44 27.99l-4.4 -22.57c0,0 -0.53,-4.52 -6.2,-4.52l-20.6 0 -0.24 0.85c0,0 9.9,2.05 19.4,9.74 9.08,7.35 12.04,16.51 12.04,16.51z"/>
  </g>
 </g>
</svg>
